<svg width="159" height="125" viewBox="0 0 159 125" fill="none" xmlns="http://www.w3.org/2000/svg">
<path d="M77.0723 46.1338C45.0737 37.1331 7.62857 102.803 19.9484 117.229C19.887 118.128 12.5348 116.162 11.0902 115.87C10.615 115.775 16.4975 118.01 17.8693 119.125C25.3419 125.195 24.5638 113.959 29.5722 111.636" stroke="#1C1C1C" stroke-width="2" stroke-linecap="round"/>
<path d="M97.5672 29.1365C96.9578 29.8629 96.5481 30.7204 96.338 31.709C96.131 32.6829 96.2164 33.823 96.5941 35.1293C97.4771 34.5305 98.2118 33.958 98.7983 33.4118C99.3847 32.8656 99.8504 32.3978 100.195 32.0085C100.54 31.6191 100.784 31.378 100.927 31.285C101.017 31.2269 101.112 31.2162 101.212 31.2529C101.321 31.2838 101.407 31.3485 101.471 31.4469C101.599 31.6437 101.509 31.9755 101.202 32.4422C100.895 32.9089 100.419 33.4402 99.776 34.036C99.1327 34.6318 98.3593 35.2231 97.4558 35.8098C97.2947 35.9144 97.1219 36.0203 96.9371 36.1275C96.9599 36.2018 96.9901 36.2776 97.0276 36.355C97.2233 36.813 97.4562 37.3675 97.7265 38.0187C97.9909 38.661 98.2713 39.3374 98.5674 40.0481C98.8636 40.7588 99.1526 41.4487 99.4345 42.1178C99.7106 42.7779 99.9565 43.3622 100.172 43.8707C100.394 44.3882 100.558 44.7585 100.665 44.9817C100.751 45.1928 100.765 45.3809 100.707 45.5458C100.658 45.705 100.57 45.8253 100.445 45.9066C100.32 45.9879 100.172 46.0143 100 45.9856C99.8349 45.9658 99.6854 45.8531 99.5518 45.6473C99.4937 45.5579 99.397 45.3599 99.2616 45.0536C99.1352 44.7414 98.9799 44.3653 98.7959 43.9252C98.6118 43.4851 98.403 43.0166 98.1693 42.5197C97.9446 42.017 97.7036 41.5185 97.4462 41.0243C97.1978 40.5242 96.94 40.0685 96.6727 39.6569C96.5217 39.4244 96.3762 39.2199 96.2363 39.0437C95.9888 39.7005 95.6261 40.3367 95.1482 40.9522C94.6704 41.5678 94.1058 42.1379 93.4545 42.6626C93.5482 43.2377 93.586 43.7855 93.5679 44.306C93.544 44.8176 93.4557 45.2692 93.303 45.6608C93.1593 46.0467 92.9399 46.3354 92.6447 46.5272C92.3584 46.7131 91.9949 46.6821 91.554 46.4341C91.1222 46.1804 90.6594 45.6734 90.1655 44.913C89.8112 44.3673 89.5216 43.8431 89.2969 43.3403C89.0157 43.1032 88.7502 42.7923 88.5004 42.4077C88.1809 41.9156 87.992 41.3897 87.9336 40.8298C87.8842 40.2641 87.9587 39.7325 88.157 39.2349C88.3642 38.7314 88.696 38.3316 89.1522 38.0353C89.6174 37.7332 90.1154 37.6578 90.6461 37.8092C91.1799 37.9458 91.6618 38.3451 92.0917 39.0071C92.3299 39.3739 92.5426 39.7699 92.7298 40.1953C92.9112 40.6117 93.0657 41.0455 93.1934 41.4967C93.7347 41.018 94.204 40.497 94.6013 39.9338C94.9986 39.3705 95.3027 38.8106 95.5136 38.2539C95.2472 38.0199 94.9709 37.8687 94.6847 37.8001C94.4075 37.7258 94.1231 37.7579 93.8315 37.8964C93.5904 38.0148 93.3885 37.9487 93.2259 37.6983C93.1678 37.6088 93.1573 37.4948 93.1945 37.3562C93.2406 37.2117 93.3263 37.0989 93.4515 37.0175C93.693 36.8607 93.9791 36.694 94.3096 36.5175C94.6491 36.3352 95.0633 36.0917 95.5522 35.7869C95.3607 34.9828 95.2505 34.1767 95.2218 33.3687C95.202 32.5548 95.2556 31.7951 95.3824 31.0895C95.5092 30.3839 95.6971 29.7723 95.9459 29.2546C96.1948 28.7369 96.4936 28.3647 96.8425 28.1381C97.102 27.9697 97.2907 27.898 97.4087 27.9231C97.5357 27.9424 97.6486 28.028 97.7474 28.1801C97.8577 28.3501 97.8883 28.5147 97.839 28.6738C97.7929 28.8182 97.7023 28.9725 97.5672 29.1365ZM90.1069 42.4137C90.4243 42.5891 90.7637 42.6613 91.125 42.6301C91.4805 42.59 91.8028 42.4889 92.0917 42.3267C91.964 41.8754 91.7978 41.4237 91.5932 40.9715C91.3975 40.5135 91.1777 40.0967 90.9337 39.721C90.7885 39.4973 90.6157 39.3488 90.4154 39.2754C90.2093 39.193 90.0123 39.2128 89.8244 39.3348C89.5382 39.5207 89.3424 39.8068 89.2372 40.1931C89.1409 40.5736 89.1613 40.9674 89.2984 41.3744C89.3753 41.3753 89.4549 41.3999 89.5372 41.4482C89.6284 41.4908 89.7204 41.5836 89.8134 41.7267C89.8366 41.7625 89.8771 41.8444 89.9347 41.9723C89.9865 42.0912 90.0439 42.2384 90.1069 42.4137ZM92.3354 43.4657C92.097 43.6078 91.8456 43.7202 91.5813 43.8028C91.3259 43.8796 91.0637 43.9164 90.7945 43.9131C90.9044 44.1216 91.0116 44.3063 91.1162 44.4673C91.4764 45.0219 91.7683 45.2266 91.9919 45.0814C92.1709 44.9652 92.2827 44.7654 92.3276 44.4819C92.3814 44.1926 92.384 43.8539 92.3354 43.4657ZM95.7783 37.2808C95.8101 37.0948 95.8301 36.9101 95.8382 36.7267C95.8324 36.7178 95.8266 36.7089 95.8208 36.6999C95.7165 36.7549 95.6049 36.8083 95.486 36.8601C95.376 36.9061 95.2688 36.9566 95.1646 37.0115C95.3681 37.0702 95.5726 37.1599 95.7783 37.2808ZM104.772 40.7886C104.619 40.8874 104.464 40.9121 104.305 40.8629C104.145 40.8136 103.985 40.6637 103.822 40.4133C103.531 39.966 103.255 39.4907 102.991 38.9876C102.731 38.4696 102.468 38.0049 102.2 37.5934C101.59 36.6541 101.003 35.9355 100.438 35.4375C99.8761 34.9248 99.2526 34.7383 98.5675 34.878C98.4132 34.9146 98.2918 34.9235 98.2032 34.9047C98.1058 34.8917 98.0193 34.827 97.9437 34.7107C97.8624 34.5855 97.8448 34.4507 97.8909 34.3062C97.9281 34.1676 98.0719 34.017 98.3224 33.8543C98.5282 33.7207 98.8068 33.5525 99.1584 33.3496C99.5099 33.1467 99.8883 32.9264 100.294 32.6887C99.926 31.5156 99.7047 30.4893 99.6295 29.6097C99.5543 28.7301 99.6004 27.9688 99.7679 27.3258C99.9444 26.677 100.213 26.1211 100.574 25.658C100.943 25.189 101.383 24.789 101.893 24.4579C102.116 24.3126 102.28 24.251 102.383 24.273C102.481 24.286 102.567 24.3506 102.643 24.4669C102.736 24.61 102.79 24.7912 102.805 25.0103C102.814 25.2205 102.695 25.438 102.446 25.6628C101.908 26.1652 101.494 26.7135 101.206 27.3076C100.918 27.9018 100.776 28.585 100.782 29.3573C100.782 30.1206 100.95 31.0161 101.287 32.0439C102.134 31.4683 102.843 30.9442 103.414 30.4718C103.978 29.9905 104.438 29.5714 104.791 29.2147C105.148 28.8433 105.431 28.5449 105.641 28.3196C105.845 28.0854 106.014 27.9247 106.148 27.8376C106.3 27.7388 106.42 27.7181 106.508 27.7753C106.596 27.8326 106.669 27.906 106.727 27.9954C106.838 28.1654 106.784 28.4355 106.567 28.8056C106.343 29.1669 106.009 29.5815 105.562 30.0495C105.119 30.5027 104.607 30.9685 104.028 31.4467C103.448 31.9249 102.854 32.3616 102.245 32.7566C102.147 32.8205 102.049 32.8844 101.95 32.9483C101.861 33.0064 101.767 33.0674 101.668 33.1313C101.691 33.2056 101.721 33.2814 101.759 33.3587C102.006 33.9357 102.274 34.544 102.562 35.1835C102.854 35.8083 103.144 36.4213 103.432 37.0224C103.724 37.6088 103.997 38.1372 104.252 38.6078C104.507 39.0783 104.721 39.4477 104.895 39.7161C105.041 39.9398 105.097 40.1446 105.065 40.3306C105.039 40.5256 104.941 40.6782 104.772 40.7886ZM100.641 33.7225C100.364 33.8641 100.099 33.9852 99.8463 34.0857C100.05 34.1444 100.25 34.237 100.446 34.3637C100.652 34.4845 100.853 34.6274 101.049 34.7925C100.897 34.4209 100.761 34.0642 100.641 33.7225ZM109.491 35.1962C109.347 35.2891 109.189 35.3094 109.015 35.257C108.841 35.2046 108.687 35.0755 108.554 34.8698C108.455 34.7177 108.324 34.4469 108.16 34.0573C107.999 33.653 107.805 33.1877 107.577 32.6613C107.359 32.129 107.115 31.5876 106.847 31.0371C106.573 30.4775 106.281 29.9607 105.974 29.4866C105.822 29.254 105.77 29.0463 105.817 28.8634C105.867 28.6658 105.967 28.5176 106.12 28.4188C106.263 28.3259 106.428 28.3456 106.616 28.478C106.804 28.6105 107.049 28.9596 107.353 29.5254C107.172 28.3457 107.148 27.3187 107.279 26.4446C107.414 25.5557 107.649 24.8307 107.985 24.2696C108.314 23.6996 108.675 23.2868 109.069 23.0312C109.329 22.8627 109.551 22.7944 109.737 22.8262C109.926 22.8433 110.062 22.9144 110.143 23.0397C110.253 23.2097 110.269 23.3903 110.19 23.5817C110.114 23.7583 109.946 24.0196 109.688 24.3656C109.393 24.7733 109.147 25.1875 108.949 25.6082C108.755 26.0141 108.615 26.474 108.529 26.9877C108.452 27.4957 108.437 28.0902 108.485 28.7713C108.527 29.4434 108.645 30.2318 108.838 31.1365C109.032 32.0412 109.303 33.1051 109.652 34.3283C109.726 34.5599 109.745 34.7451 109.707 34.8837C109.679 35.0165 109.607 35.1206 109.491 35.1962ZM115.496 32.6218C115.157 32.8426 114.773 32.8691 114.346 32.7012C113.922 32.5186 113.545 32.1723 113.214 31.6624C112.906 31.1883 112.717 30.6431 112.647 30.0268C112.587 29.4048 112.614 28.7513 112.729 28.0663C112.844 27.3812 113.017 26.7088 113.25 26.0489C113.477 25.38 113.736 24.7603 114.027 24.1898C114.327 23.6136 114.624 23.1216 114.919 22.7139C115.214 22.3062 115.478 22.0268 115.71 21.8758C115.835 21.7944 115.956 21.7545 116.071 21.7559C116.181 21.7483 116.276 21.8071 116.357 21.9324C116.41 22.0129 116.428 22.1093 116.412 22.2215C116.421 22.2157 116.43 22.2099 116.439 22.2041C116.635 22.0763 116.809 22.1287 116.96 22.3612C117.013 22.4418 117.089 22.6276 117.189 22.9187C117.283 23.2009 117.409 23.5516 117.567 23.9706C117.724 24.3897 117.917 24.8432 118.145 25.3312C118.367 25.8102 118.626 26.2778 118.922 26.734C119.172 27.1187 119.445 27.2152 119.74 27.0235C120.071 26.8085 120.357 26.5146 120.598 26.1418C120.839 25.769 121.051 25.3706 121.234 24.9468C121.411 24.514 121.564 24.1031 121.693 23.7141C121.816 23.3162 121.922 22.9802 122.011 22.7061C122.1 22.432 122.185 22.2688 122.265 22.2166C122.337 22.1701 122.414 22.1518 122.497 22.1617C122.579 22.1715 122.653 22.2257 122.717 22.3241C122.775 22.4135 122.79 22.6326 122.762 22.9814C122.734 23.3302 122.668 23.7481 122.565 24.235C122.462 24.7219 122.316 25.2231 122.13 25.7386C121.943 26.2541 121.715 26.7263 121.447 27.155C121.178 27.5837 120.87 27.9114 120.521 28.1379C120.253 28.3122 119.954 28.3915 119.626 28.3757C119.301 28.3451 118.941 28.1721 118.545 27.8567C118.158 27.5355 117.736 27.0215 117.277 26.3148L117.059 25.9793C117.091 26.9886 117.06 27.9498 116.966 28.8629C116.881 29.7701 116.718 30.5567 116.476 31.2224C116.244 31.8823 115.917 32.3488 115.496 32.6218ZM116.083 23.0075C116.05 23.0544 116.004 23.1219 115.947 23.21C115.658 23.6651 115.379 24.1765 115.112 24.7443C114.854 25.3063 114.625 25.8938 114.425 26.5068C114.234 27.114 114.093 27.7084 114 28.2902C113.907 28.8719 113.884 29.4145 113.931 29.918C113.979 30.4216 114.118 30.8523 114.351 31.2101C114.426 31.3264 114.507 31.4013 114.592 31.4349C114.686 31.4627 114.796 31.4359 114.921 31.3545C115.1 31.2384 115.26 30.9755 115.401 30.5659C115.537 30.1474 115.652 29.64 115.748 29.0435C115.853 28.4412 115.932 27.7986 115.984 27.1158C116.037 26.433 116.069 25.7574 116.08 25.0888C116.1 24.4145 116.098 23.805 116.075 23.2604C116.07 23.1745 116.073 23.0902 116.083 23.0075ZM134.127 19.4544C134.211 19.6033 134.229 19.7574 134.18 19.9166C134.13 20.0757 134.034 20.2018 133.891 20.2948C133.73 20.3993 133.561 20.4328 133.384 20.3952C133.207 20.3575 133.046 20.2269 132.9 20.0032C132.523 19.4218 132.14 18.7736 131.752 18.0589C131.359 17.3352 130.984 16.6118 130.629 15.8885C130.268 15.1564 129.942 14.4779 129.65 13.8531C129.628 14.4652 129.608 15.1396 129.591 15.876C129.582 16.6067 129.561 17.3387 129.529 18.0721C129.496 18.8054 129.446 19.4927 129.38 20.1339C129.307 20.7662 129.216 21.3021 129.107 21.7416C128.993 22.1722 128.846 22.4456 128.667 22.5617C128.336 22.7767 127.965 22.8329 127.555 22.7303C127.14 22.6188 126.801 22.3617 126.539 21.9592C126.435 21.7982 126.31 21.5674 126.166 21.2668C126.016 20.9573 125.862 20.6315 125.703 20.2893C125.544 19.9472 125.396 19.6303 125.257 19.3387C125.113 19.0381 124.997 18.8208 124.91 18.6866C124.829 18.5613 124.746 18.4627 124.661 18.3907C124.579 18.3039 124.502 18.2837 124.431 18.3302C124.323 18.3999 124.254 18.6165 124.223 18.9801C124.186 19.3347 124.171 19.7709 124.176 20.2887C124.191 20.8007 124.211 21.3409 124.237 21.9093C124.271 22.4718 124.305 23.0033 124.337 23.5037C124.364 23.9951 124.373 24.3902 124.363 24.6889C124.375 24.9613 124.36 25.1741 124.32 25.3275C124.28 25.4808 124.188 25.604 124.045 25.6969C123.875 25.8073 123.66 25.8195 123.401 25.7336C123.15 25.6418 122.941 25.4662 122.772 25.2068C122.674 25.0547 122.547 24.8002 122.391 24.4433C122.23 24.0774 122.062 23.6715 121.887 23.2256C121.72 22.7739 121.556 22.3341 121.392 21.9061C121.232 21.4633 121.096 21.0874 120.984 20.7784C120.858 20.4277 120.814 20.1639 120.852 19.9868C120.889 19.8097 120.971 19.6805 121.096 19.5992C121.266 19.4888 121.441 19.4643 121.62 19.5257C121.803 19.5722 121.976 19.7208 122.139 19.9712C122.168 20.016 122.219 20.1542 122.294 20.3858C122.362 20.6086 122.446 20.8847 122.545 21.2143C122.648 21.5292 122.751 21.8633 122.853 22.2166C122.964 22.5641 123.074 22.8805 123.183 23.1658C123.165 22.707 123.138 22.2156 123.103 21.6915C123.077 21.1616 123.054 20.6361 123.034 20.1152C123.007 19.5853 123.004 19.0911 123.025 18.6328C123.039 18.1655 123.093 17.7682 123.186 17.4409C123.278 17.1136 123.423 16.8861 123.62 16.7583C123.852 16.6072 124.114 16.5394 124.403 16.5547C124.702 16.5642 124.992 16.6491 125.275 16.8093C125.557 16.9695 125.794 17.1972 125.985 17.4924C126.119 17.6982 126.272 18.0121 126.444 18.4343C126.611 18.8476 126.793 19.2951 126.992 19.7767C127.199 20.2526 127.419 20.6887 127.651 21.085C127.709 21.1744 127.765 21.2017 127.818 21.1669C127.863 21.1378 127.896 21.0717 127.918 20.9684C127.992 20.5136 128.054 19.9833 128.106 19.3774C128.152 18.7626 128.188 18.1225 128.214 17.4571C128.248 16.7859 128.284 16.1266 128.322 15.4791C128.353 14.8227 128.392 14.2255 128.436 13.6876C128.485 13.1349 128.546 12.6815 128.621 12.3273C128.706 11.9674 128.81 11.7468 128.936 11.6654C129.204 11.4912 129.459 11.4336 129.701 11.4927C129.943 11.5518 130.18 11.7603 130.412 12.1181C130.598 12.4044 130.817 12.7902 131.069 13.2755C131.329 13.7549 131.602 14.2834 131.888 14.8608C132.183 15.4324 132.472 16.0143 132.755 16.6065C133.041 17.1839 133.304 17.7255 133.543 18.2314C133.777 18.7283 133.971 19.1359 134.127 19.4544ZM139.502 22.2024C139.35 22.3012 139.194 22.3259 139.035 22.2767C138.885 22.2216 138.711 22.042 138.514 21.7378C138.229 21.2995 137.929 20.7692 137.614 20.1471C137.299 19.525 136.983 18.8525 136.667 18.1297C136.359 17.4012 136.06 16.6668 135.77 15.9266C135.489 15.1806 135.233 14.463 135.002 13.7738C134.779 13.0788 134.596 12.4539 134.452 11.8989C134.302 11.3349 134.202 10.8781 134.153 10.5284C134.113 10.1729 134.142 9.96315 134.241 9.89925C134.411 9.78887 134.577 9.75093 134.739 9.78542C134.91 9.81412 135.06 9.92686 135.188 10.1237C135.35 10.3742 135.539 10.8306 135.752 11.4929C135.961 12.1463 136.234 12.9987 136.574 14.0502C136.53 13.4934 136.493 12.9072 136.462 12.2914C136.431 11.6756 136.422 11.0646 136.435 10.4582C136.442 9.84293 136.479 9.27235 136.544 8.74651C136.619 8.21485 136.728 7.7561 136.872 7.37025C137.015 6.98441 137.217 6.70724 137.476 6.53877C137.754 6.35868 138.058 6.28837 138.389 6.32786C138.714 6.35841 139.03 6.48352 139.338 6.70321C139.649 6.90814 139.921 7.18953 140.154 7.54736C140.636 8.28986 140.978 9.09133 141.181 9.95177C141.378 10.8033 141.433 11.6516 141.345 12.4967C141.261 13.327 141.024 14.0979 140.634 14.8092C140.253 15.5146 139.718 16.091 139.029 16.5384C138.77 16.7068 138.528 16.8445 138.305 16.9512C138.082 17.058 137.883 17.1429 137.707 17.2059C137.983 17.866 138.276 18.5411 138.584 19.2313C138.892 19.9214 139.226 20.6517 139.587 21.4224C139.682 21.6276 139.722 21.7864 139.706 21.8986C139.695 22.0198 139.627 22.1211 139.502 22.2024ZM138.38 7.40174C138.192 7.52374 138.038 7.77632 137.918 8.1595C137.807 8.53686 137.72 9.00032 137.658 9.54986C137.598 10.0847 137.56 10.6626 137.543 11.2837C137.521 11.8959 137.514 12.5112 137.521 13.1296C137.529 13.7481 137.538 14.3207 137.549 14.8474C137.57 15.3684 137.59 15.8006 137.609 16.144C138.295 15.673 138.818 15.1364 139.177 14.5342C139.531 13.9231 139.762 13.2898 139.87 12.6342C139.973 11.9698 139.984 11.3205 139.903 10.6864C139.825 10.0375 139.691 9.4501 139.502 8.92415C139.308 8.38925 139.1 7.95183 138.879 7.61189C138.716 7.36141 138.55 7.29136 138.38 7.40174ZM102.27 64.2284C102.074 64.3562 101.884 64.3968 101.701 64.3502C101.524 64.3126 101.293 64.0746 101.008 63.6362C100.747 63.2337 100.479 62.6639 100.203 61.9268C99.9224 61.1808 99.6442 60.3313 99.3687 59.3783C99.0931 58.4252 98.8315 57.425 98.5838 56.3777C98.3302 55.3213 98.1017 54.2742 97.8982 53.2362C97.6979 52.1835 97.5306 51.2111 97.3964 50.3189C97.35 49.9929 97.3575 49.74 97.4188 49.5603C97.4802 49.3805 97.5958 49.2355 97.7658 49.1251C97.8821 49.0496 98.0037 49.0215 98.1307 49.0407C98.2608 49.0453 98.3753 49.1236 98.474 49.2757C98.5089 49.3293 98.564 49.5415 98.6395 49.9123C98.7238 50.2772 98.8245 50.7651 98.9414 51.376C99.0672 51.9811 99.2085 52.6588 99.3651 53.4092C99.5217 54.1596 99.6942 54.9443 99.8826 55.7631C100.071 56.582 100.276 57.3966 100.497 58.2069C100.712 59.0083 100.941 59.7626 101.184 60.4697C101.427 61.1767 101.678 61.7893 101.938 62.3072C101.985 61.9083 102.016 61.4176 102.032 60.8349C102.048 60.2523 102.061 59.6267 102.072 58.9582C102.083 58.2896 102.101 57.6227 102.127 56.9573C102.153 56.2919 102.2 55.6697 102.269 55.0907C102.339 54.5116 102.435 54.0231 102.558 53.6252C102.684 53.2125 102.85 52.9394 103.056 52.8057C103.396 52.585 103.738 52.5151 104.084 52.5962C104.432 52.6625 104.76 52.9328 105.068 53.4069C105.242 53.6753 105.398 54.0322 105.534 54.4776C105.68 54.9172 105.819 55.3864 105.952 55.885C106.085 56.3837 106.22 56.8557 106.357 57.3012C106.502 57.7408 106.662 58.0948 106.837 58.3632C107.075 58.73 107.333 58.8233 107.61 58.6432C108.039 58.3643 108.408 57.9916 108.715 57.5248C109.031 57.0523 109.296 56.5496 109.51 56.0166C109.718 55.4748 109.894 54.9532 110.039 54.452C110.178 53.9418 110.297 53.5083 110.396 53.1515C110.502 52.7652 110.639 52.5169 110.809 52.4065C111.024 52.2671 111.204 52.3092 111.349 52.5328C111.39 52.5955 111.423 52.6757 111.448 52.7737C111.474 52.8716 111.469 53.021 111.434 53.2217C111.396 53.4757 111.326 53.8196 111.226 54.2533C111.135 54.6812 111.011 55.156 110.854 55.6778C110.706 56.1938 110.515 56.7122 110.281 57.233C110.056 57.7481 109.788 58.2271 109.478 58.6701C109.171 59.0984 108.821 59.4403 108.427 59.696C107.89 60.0445 107.376 60.1626 106.883 60.0501C106.393 59.9229 105.971 59.5865 105.617 59.0408C105.396 58.7009 105.183 58.2545 104.976 57.7017C104.77 57.1489 104.573 56.5519 104.385 55.9105C104.201 55.2545 104.025 54.6118 103.858 53.9826C103.7 54.3653 103.578 54.8638 103.494 55.4782C103.413 56.0778 103.349 56.7427 103.301 57.4729C103.248 58.1942 103.201 58.9244 103.16 59.6636C103.127 60.3969 103.08 61.0887 103.019 61.7388C102.961 62.3742 102.873 62.9146 102.756 63.3599C102.638 63.8053 102.476 64.0947 102.27 64.2284ZM113.224 47.7289C113.595 48.3014 113.683 49.0333 113.486 49.9244C113.289 50.8155 112.776 51.8478 111.948 53.0213C112.058 53.2682 112.162 53.4677 112.261 53.6197C112.493 53.9776 112.706 54.2079 112.9 54.3109C113.103 54.408 113.317 54.3839 113.54 54.2387C113.871 54.0238 114.176 53.6798 114.454 53.2068C114.726 52.7249 114.973 52.1761 115.197 51.5604C115.414 50.9358 115.611 50.2991 115.788 49.6503C115.973 48.9958 116.137 48.3868 116.28 47.8234C116.417 47.2511 116.544 46.7807 116.661 46.4123C116.772 46.0349 116.872 45.8172 116.962 45.7591C117.087 45.6778 117.228 45.6691 117.384 45.7331C117.534 45.7882 117.67 45.9096 117.792 46.0975C117.943 46.3301 118.104 46.6072 118.275 46.9288C118.44 47.2414 118.612 47.5749 118.791 47.9291C118.599 47.125 118.521 46.3681 118.556 45.6585C118.595 44.9341 118.711 44.2801 118.904 43.6967C119.097 43.1132 119.334 42.616 119.614 42.2052C119.894 41.7944 120.173 41.4989 120.45 41.3188C120.71 41.1503 120.934 41.0746 121.123 41.0917C121.312 41.1088 121.451 41.1844 121.538 41.3186C121.619 41.4438 121.636 41.5979 121.59 41.7808C121.546 41.9489 121.38 42.2413 121.091 42.6579C120.751 43.1331 120.458 43.6222 120.212 44.1252C119.976 44.6223 119.824 45.1915 119.757 45.8327C119.684 46.465 119.737 47.2127 119.916 48.0758C120.095 48.9389 120.442 49.9727 120.957 51.1771C121.061 51.4151 121.097 51.6078 121.066 51.7554C121.04 51.9118 120.965 52.0308 120.84 52.1121C120.75 52.1702 120.635 52.188 120.493 52.1656C120.357 52.1521 120.172 52.0242 119.938 51.7817C119.699 51.5303 119.381 51.1004 118.986 50.4921C118.719 50.0806 118.446 49.6217 118.169 49.1154C117.9 48.6033 117.634 48.0572 117.372 47.4771C117.251 48.1916 117.099 48.9575 116.918 49.7749C116.731 50.5833 116.505 51.372 116.242 52.141C115.972 52.9011 115.662 53.5793 115.312 54.1757C114.961 54.7721 114.563 55.2155 114.115 55.506C113.641 55.8139 113.153 55.8953 112.652 55.7502C112.151 55.6051 111.688 55.2061 111.264 54.553C110.776 53.8016 110.427 53.0488 110.217 52.2948C110.008 51.5408 109.911 50.834 109.928 50.1744C109.939 49.5059 110.042 48.9302 110.237 48.4474C110.432 47.9645 110.695 47.6156 111.026 47.4007C111.474 47.1102 111.894 47.0028 112.286 47.0785C112.673 47.1453 112.985 47.3621 113.224 47.7289ZM111.527 51.9023C111.673 51.5402 111.828 51.1411 111.99 50.7052C112.161 50.2635 112.279 49.8492 112.346 49.4624C112.416 49.0609 112.384 48.7573 112.251 48.5515C112.169 48.4263 112.08 48.3571 111.983 48.3441C111.885 48.3311 111.76 48.374 111.608 48.4728C111.367 48.6296 111.221 48.8956 111.173 49.2708C111.118 49.637 111.129 50.0558 111.206 50.5271C111.278 50.9895 111.384 51.4479 111.527 51.9023ZM127.327 38.8752C127.513 39.1614 127.607 39.5013 127.608 39.8948C127.603 40.2794 127.535 40.6928 127.402 41.135C127.264 41.5682 127.085 42.0084 126.867 42.4555C126.649 42.9025 126.413 43.3228 126.159 43.7162C125.906 44.1096 125.664 44.4513 125.433 44.7415C125.588 45.1368 125.752 45.4687 125.927 45.7371C126.037 45.907 126.156 46.0017 126.283 46.0209C126.41 46.0402 126.558 45.9947 126.728 45.8843C127.104 45.6403 127.458 45.3147 127.792 44.9074C128.125 44.5002 128.441 44.0469 128.74 43.5475C129.039 43.0482 129.311 42.547 129.557 42.0441C129.803 41.5411 130.021 41.0748 130.213 40.6451C130.413 40.2097 130.582 39.8522 130.718 39.5728C130.855 39.2934 130.959 39.1304 131.03 39.084C131.138 39.0142 131.242 38.9977 131.342 39.0345C131.445 39.0564 131.526 39.1121 131.584 39.2016C131.63 39.2731 131.608 39.4844 131.518 39.8354C131.437 40.1806 131.303 40.6109 131.117 41.1264C130.924 41.633 130.693 42.1776 130.423 42.7601C130.152 43.3427 129.852 43.9189 129.523 44.4889C129.203 45.0531 128.864 45.5594 128.506 46.0078C128.158 46.4503 127.804 46.7878 127.447 47.0202C126.981 47.3223 126.506 47.3831 126.02 47.2027C125.534 47.0223 125.053 46.5653 124.576 45.8317C124.257 45.3397 123.997 44.8026 123.797 44.2203C123.606 43.6322 123.474 43.0374 123.401 42.4359C123.332 41.8197 123.319 41.2426 123.364 40.7047C123.412 40.152 123.526 39.6711 123.706 39.262C123.879 38.844 124.114 38.5391 124.409 38.3474C124.973 37.9814 125.517 37.8504 126.042 37.9543C126.568 38.0583 126.996 38.3652 127.327 38.8752ZM125.043 43.5252C125.21 43.1752 125.38 42.8103 125.554 42.4308C125.727 42.0512 125.875 41.6817 125.997 41.3222C126.12 40.9627 126.188 40.6262 126.2 40.3128C126.216 39.9846 126.149 39.7042 125.998 39.4716C125.783 39.1406 125.496 39.0913 125.138 39.3236C124.915 39.4689 124.771 39.766 124.706 40.2149C124.645 40.6491 124.647 41.1624 124.714 41.755C124.781 42.3475 124.891 42.9376 125.043 43.5252Z" fill="black"/>
</svg>
