<svg width="20" height="12" viewBox="0 0 20 12" fill="none" xmlns="http://www.w3.org/2000/svg">
<path d="M3.88856 7.5281H2.36078C1.51702 7.5281 0.833008 8.21211 0.833008 9.05588C0.833008 9.89965 1.51702 10.5837 2.36079 10.5837C3.20455 10.5837 3.88856 9.89965 3.88856 9.05588V7.5281ZM3.88856 7.5281H6.94412M3.88856 7.5281V4.47255M6.94412 7.5281H8.4719C9.31566 7.5281 9.99967 8.21211 9.99967 9.05588C9.99967 9.89965 9.31566 10.5837 8.4719 10.5837C7.62813 10.5837 6.94412 9.89965 6.94412 9.05588V7.5281ZM6.94412 7.5281V4.47255M6.94412 4.47255V2.94477C6.94412 2.101 7.62813 1.41699 8.4719 1.41699C9.31566 1.41699 9.99967 2.101 9.99967 2.94477C9.99967 3.78854 9.31566 4.47255 8.4719 4.47255H6.94412ZM6.94412 4.47255H3.88856M3.88856 4.47255H2.36079C1.51702 4.47255 0.833008 3.78854 0.833008 2.94477C0.833008 2.101 1.51702 1.41699 2.36079 1.41699C3.20455 1.41699 3.88856 2.101 3.88856 2.94477V4.47255ZM13.333 1.41699V7.66699M13.333 7.66699V10.5837M13.333 7.66699L15.0341 5.9659M15.0341 5.9659L19.1015 1.41699M15.0341 5.9659C16.9245 6.78466 18.3867 8.35621 19.0673 10.3007L19.1663 10.5837" stroke="#A7A7A7" stroke-width="1.5" stroke-linecap="round" stroke-linejoin="round"/>
</svg>
