<svg width="48" height="49" viewBox="0 0 48 49" fill="none" xmlns="http://www.w3.org/2000/svg">
<path opacity="0.28" d="M24.0002 4.19922C12.7888 4.19922 3.7002 13.2878 3.7002 24.4992C3.7002 35.7106 12.7888 44.7992 24.0002 44.7992C35.2116 44.7992 44.3002 35.7106 44.3002 24.4992C44.3002 13.2878 35.2116 4.19922 24.0002 4.19922Z" fill="#CCCCCC"/>
<path d="M18 17.873C19.1046 17.873 20 18.7685 20 19.873V21.873C20 22.9776 19.1046 23.873 18 23.873C16.8954 23.873 16 22.9776 16 21.873L16 19.873C16 18.7685 16.8954 17.873 18 17.873Z" fill="#CCCCCC"/>
<path d="M32.5326 34.1278C31.7438 34.9011 30.4775 34.8885 29.7043 34.0997C28.25 32.6163 26.2294 31.6996 23.991 31.6996C21.7527 31.6996 19.7321 32.6163 18.2778 34.0997C17.5046 34.8885 16.2383 34.9011 15.4495 34.1278C14.6607 33.3546 14.6482 32.0883 15.4214 31.2996C17.597 29.0803 20.6346 27.6996 23.991 27.6996C27.3475 27.6996 30.3851 29.0803 32.5607 31.2996C33.3339 32.0883 33.3213 33.3546 32.5326 34.1278Z" fill="#CCCCCC"/>
<path d="M32 19.873C32 18.7685 31.1046 17.873 30 17.873C28.8954 17.873 28 18.7685 28 19.873V21.873C28 22.9776 28.8954 23.873 30 23.873C31.1046 23.873 32 22.9776 32 21.873V19.873Z" fill="#CCCCCC"/>
</svg>
