<svg width="25" height="25" viewBox="0 0 25 25" fill="none" xmlns="http://www.w3.org/2000/svg">
<path d="M1.5 10.5C1.5 11.603 2.445 12.505 3.6 12.505H4.68397M16.5 11.5H16.51M4.68397 12.505C4.65451 13.9482 5.22834 15.4654 6.595 16.838C6.69191 16.933 6.74759 17.0623 6.75 17.198C6.75 18.106 6.256 20.5 7.8 20.5H9.25C10.169 20.5 10.47 19.412 10.805 18.772C11.104 18.201 13.946 18.201 14.245 18.772C14.58 19.411 14.881 20.5 15.799 20.5H17.25C18.876 20.5 18.3 17.736 18.3 16.799C18.3 15.166 22.5 15.112 22.5 13.982V10.973C22.5 10.696 22.265 10.472 21.975 10.472C21.436 10.472 20.495 10.668 20.351 9.97397C20.227 9.36897 19.878 8.97897 19.503 8.61397C18.999 8.12297 19.35 6.58497 19.35 5.95897C19.35 5.68197 19.113 5.45397 18.828 5.50797C17.828 5.69797 16.966 6.39097 16.512 6.95297C16.314 7.19897 15.936 7.32797 15.64 7.19797C9.99115 4.71427 4.76993 8.29441 4.68397 12.505Z" stroke="#737373" stroke-width="1.5" stroke-linecap="round" stroke-linejoin="round"/>
</svg>
