<svg width="21" height="20" viewBox="0 0 21 20" fill="none" xmlns="http://www.w3.org/2000/svg">
<path d="M8.89819 2.27916C9.28506 0.573612 11.7149 0.573612 12.1018 2.27916L12.1531 2.50528C12.4038 3.61045 13.6719 4.13573 14.6306 3.53151L14.8268 3.40789C16.3064 2.47545 18.0246 4.19363 17.0921 5.6732L16.9685 5.86935C16.3643 6.82809 16.8895 8.09621 17.9947 8.3469L18.2208 8.39819C19.9264 8.78506 19.9264 11.2149 18.2208 11.6018L17.9947 11.6531C16.8895 11.9038 16.3643 13.1719 16.9685 14.1306L17.0921 14.3268C18.0246 15.8064 16.3064 17.5246 14.8268 16.5921L14.6306 16.4685C13.6719 15.8643 12.4038 16.3895 12.1531 17.4947L12.1018 17.7208C11.7149 19.4264 9.28506 19.4264 8.89819 17.7208L8.8469 17.4947C8.59621 16.3895 7.32809 15.8643 6.36935 16.4685L6.1732 16.5921C4.69363 17.5246 2.97545 15.8064 3.90789 14.3268L4.03151 14.1306C4.63573 13.1719 4.11045 11.9038 3.00528 11.6531L2.77916 11.6018C1.07361 11.2149 1.07361 8.78506 2.77916 8.39819L3.00528 8.3469C4.11045 8.09621 4.63573 6.82809 4.03151 5.86935L3.90789 5.6732C2.97544 4.19363 4.69363 2.47545 6.1732 3.40789L6.36935 3.53151C7.32809 4.13573 8.59621 3.61045 8.8469 2.50528L8.89819 2.27916Z" stroke="#6F6F6F" stroke-width="1.5" stroke-linecap="round" stroke-linejoin="round"/>
<path d="M9.49085 10C9.49085 9.44772 9.94775 9.00001 10.5 9.00001C11.0523 9.00001 11.5092 9.44772 11.5092 10C11.5092 10.5523 11.0523 11 10.5 11C9.94775 11 9.49085 10.5523 9.49085 10Z" stroke="#6F6F6F" stroke-width="1.5" stroke-linecap="round" stroke-linejoin="round"/>
</svg>
