<svg width="17" height="16" viewBox="0 0 17 16" fill="none" xmlns="http://www.w3.org/2000/svg">
<path opacity="0.28" d="M7.08027 4.16495C7.64161 2.98857 7.92228 2.40038 8.28857 2.18697C8.71645 1.93768 9.24532 1.93768 9.67319 2.18697C10.0395 2.40038 10.3202 2.98857 10.8815 4.16495C11.0478 4.5135 11.131 4.68778 11.25 4.82642C11.3898 4.98929 11.5658 5.11716 11.7639 5.19981C11.9326 5.27017 12.124 5.2954 12.5069 5.34587C13.7992 5.51622 14.4453 5.60139 14.7615 5.88381C15.1308 6.21371 15.2942 6.71669 15.1893 7.20066C15.0996 7.61497 14.6269 8.06367 13.6815 8.96106C13.4014 9.22695 13.2614 9.35989 13.1663 9.51594C13.0546 9.69924 12.9874 9.90614 12.97 10.1201C12.9552 10.3022 12.9904 10.4921 13.0607 10.8718C13.298 12.1535 13.4167 12.7943 13.2458 13.1823C13.0462 13.6355 12.6183 13.9463 12.1256 13.9961C11.7038 14.0388 11.131 13.7279 9.98543 13.1061C9.646 12.9219 9.47629 12.8298 9.2985 12.7876C9.08966 12.738 8.87211 12.738 8.66326 12.7876C8.48548 12.8298 8.31576 12.9219 7.97633 13.1061C6.83074 13.7279 6.25794 14.0388 5.83616 13.9961C5.34347 13.9463 4.91561 13.6355 4.71598 13.1823C4.54508 12.7943 4.66375 12.1535 4.90107 10.8718C4.97139 10.4921 5.00655 10.3022 4.99174 10.1201C4.97435 9.90614 4.90713 9.69924 4.79545 9.51594C4.70037 9.35989 4.56032 9.22695 4.28022 8.96106C3.33488 8.06367 2.86221 7.61497 2.77244 7.20066C2.66757 6.71669 2.831 6.21371 3.20031 5.88381C3.51646 5.60139 4.1626 5.51622 5.45487 5.34587C5.83776 5.2954 6.0292 5.27017 6.19784 5.19981C6.39594 5.11716 6.57194 4.98929 6.71176 4.82642C6.83079 4.68778 6.91395 4.5135 7.08027 4.16495Z" fill="#377E36"/>
<path d="M7.08027 4.16495C7.64161 2.98857 7.92228 2.40038 8.28857 2.18697C8.71645 1.93768 9.24532 1.93768 9.67319 2.18697C10.0395 2.40038 10.3202 2.98857 10.8815 4.16495C11.0478 4.5135 11.131 4.68778 11.25 4.82642C11.3898 4.98929 11.5658 5.11716 11.7639 5.19981C11.9326 5.27017 12.124 5.2954 12.5069 5.34587C13.7992 5.51622 14.4453 5.60139 14.7615 5.88381C15.1308 6.21371 15.2942 6.71669 15.1893 7.20066C15.0996 7.61497 14.6269 8.06367 13.6815 8.96106C13.4014 9.22695 13.2614 9.35989 13.1663 9.51594C13.0546 9.69924 12.9874 9.90614 12.97 10.1201C12.9552 10.3022 12.9904 10.4921 13.0607 10.8718C13.298 12.1535 13.4167 12.7943 13.2458 13.1823C13.0462 13.6355 12.6183 13.9463 12.1256 13.9961C11.7038 14.0388 11.131 13.7279 9.98543 13.1061C9.646 12.9219 9.47629 12.8298 9.2985 12.7876C9.08966 12.738 8.87211 12.738 8.66326 12.7876C8.48547 12.8298 8.31576 12.9219 7.97633 13.1061C6.83074 13.7279 6.25794 14.0388 5.83616 13.9961C5.34347 13.9463 4.91561 13.6355 4.71598 13.1823C4.54508 12.7943 4.66375 12.1535 4.90107 10.8718C4.97139 10.4921 5.00655 10.3022 4.99174 10.1201C4.97436 9.90614 4.90713 9.69924 4.79545 9.51594C4.70037 9.35989 4.56032 9.22695 4.28022 8.96106C3.33488 8.06367 2.86221 7.61497 2.77244 7.20066C2.66757 6.71669 2.831 6.21371 3.20031 5.88381C3.51646 5.60139 4.1626 5.51622 5.45487 5.34587C5.83776 5.2954 6.0292 5.27017 6.19784 5.19981C6.39594 5.11716 6.57194 4.98929 6.71176 4.82642C6.83079 4.68778 6.91395 4.5135 7.08027 4.16495Z" stroke="#377E36" stroke-width="1.33333" stroke-linecap="round" stroke-linejoin="round"/>
</svg>
