<svg width="16" height="16" viewBox="0 0 16 16" fill="none" xmlns="http://www.w3.org/2000/svg">
<path opacity="0.28" d="M1.33301 9.66667V7.33333C1.33301 5.46649 1.33301 4.53307 1.69632 3.82003C2.0159 3.19282 2.52583 2.68289 3.15304 2.36331C3.86608 2 4.7995 2 6.66634 2H8.99967C9.93156 2 10.3975 2 10.765 2.15224C11.2551 2.35523 11.6444 2.74458 11.8474 3.23463C11.9857 3.56834 11.9984 3.98316 11.9996 4.7542" stroke="white" stroke-width="1.33333" stroke-linecap="round" stroke-linejoin="round"/>
<path d="M9.73422 4C10.7636 3.99996 11.5171 3.99992 12.1076 4.09623C12.376 4.14001 12.6248 4.20524 12.8644 4.30449C13.8446 4.71046 14.6232 5.48916 15.0292 6.46927C15.1953 6.87033 15.2664 7.29864 15.3004 7.79744C15.3337 8.28506 15.3337 8.8864 15.3337 9.64246L15.3337 9.74772C15.3341 10.568 15.3344 11.4606 15.0292 12.1974C14.6232 13.1775 13.8446 13.9562 12.8644 14.3622C12.4634 14.5283 12.0351 14.5994 11.5363 14.6334C11.0487 14.6667 10.4473 14.6667 9.69124 14.6667H6.3095C5.55343 14.6667 4.95209 14.6667 4.46447 14.6334C3.96567 14.5994 3.53736 14.5283 3.1363 14.3622C2.15619 13.9562 1.37749 13.1775 0.971518 12.1974C0.666314 11.4606 0.666679 10.568 0.667015 9.74771L0.667037 9.64247C0.667033 8.8864 0.66703 8.28506 0.7003 7.79744C0.734333 7.29864 0.805395 6.87033 0.971518 6.46927C1.37749 5.48916 2.15619 4.71046 3.1363 4.30449C3.53736 4.13836 3.96567 4.0673 4.46447 4.03327C4.95209 4 5.55344 4 6.3095 4L9.73422 4ZM9.33366 7.33333C8.96547 7.33333 8.66699 7.63181 8.66699 8C8.66699 8.36819 8.96547 8.66667 9.33366 8.66667H11.3337C11.7018 8.66667 12.0003 8.36819 12.0003 8C12.0003 7.63181 11.7018 7.33333 11.3337 7.33333H9.33366Z" fill="#CCCCCC"/>
</svg>
