<svg width="83" height="32" viewBox="0 0 83 32" fill="none" xmlns="http://www.w3.org/2000/svg">
<path d="M21.5058 7.64055L12.7949 16.3716C12.5948 16.5721 12.3232 16.6848 12.0398 16.6848L5.33301 16.6849C12.2741 10.0387 14.9118 4.21465 21.5058 5.51651C24.7682 6.16059 26.9199 9.55904 26.6423 13.533H21.5058V7.64055Z" fill="#CCCCCC"/>
<path d="M10.4942 24.3594L19.2051 15.6284C19.4052 15.4279 19.6768 15.3152 19.9602 15.3152L26.667 15.3151C19.7259 21.9613 17.0882 27.7853 10.4942 26.4835C7.23182 25.8394 5.08007 22.441 5.35772 18.467H10.4942V24.3594Z" fill="#CCCCCC"/>
<path d="M43.272 24.5L36.768 7.22H39.456L45.168 22.964H44.52L50.232 7.22H52.776L46.248 24.5H43.272ZM58.4203 24.74C57.1723 24.74 56.0763 24.468 55.1323 23.924C54.1883 23.364 53.4523 22.604 52.9243 21.644C52.3963 20.668 52.1323 19.564 52.1323 18.332C52.1323 17.084 52.3963 15.988 52.9243 15.044C53.4683 14.1 54.2043 13.364 55.1323 12.836C56.0763 12.292 57.1723 12.02 58.4203 12.02C59.6843 12.02 60.7883 12.292 61.7323 12.836C62.6763 13.364 63.4043 14.1 63.9163 15.044C64.4443 15.988 64.7083 17.084 64.7083 18.332C64.7083 19.564 64.4443 20.668 63.9163 21.644C63.4043 22.604 62.6763 23.364 61.7323 23.924C60.7883 24.468 59.6843 24.74 58.4203 24.74ZM58.4203 22.7C59.1723 22.7 59.8203 22.516 60.3643 22.148C60.9243 21.78 61.3643 21.268 61.6843 20.612C62.0043 19.956 62.1643 19.188 62.1643 18.308C62.1643 16.996 61.8123 15.964 61.1083 15.212C60.4203 14.444 59.5243 14.06 58.4203 14.06C57.3323 14.06 56.4363 14.444 55.7323 15.212C55.0443 15.98 54.7003 17.012 54.7003 18.308C54.7003 19.188 54.8523 19.956 55.1563 20.612C55.4763 21.268 55.9163 21.78 56.4763 22.148C57.0523 22.516 57.7003 22.7 58.4203 22.7ZM66.792 24.5V12.26H69.168V15.308H69.288V24.5H66.792ZM69.288 18.116L68.976 15.212C69.264 14.172 69.76 13.38 70.464 12.836C71.168 12.292 72.008 12.02 72.984 12.02C73.352 12.02 73.608 12.052 73.752 12.116V14.468C73.672 14.436 73.56 14.42 73.416 14.42C73.272 14.404 73.096 14.396 72.888 14.396C71.688 14.396 70.784 14.708 70.176 15.332C69.584 15.956 69.288 16.884 69.288 18.116ZM75.4995 24.5V12.26H77.8755V15.308H77.9955V24.5H75.4995ZM77.9955 18.116L77.6835 15.212C77.9715 14.172 78.4675 13.38 79.1715 12.836C79.8755 12.292 80.7155 12.02 81.6915 12.02C82.0595 12.02 82.3155 12.052 82.4595 12.116V14.468C82.3795 14.436 82.2675 14.42 82.1235 14.42C81.9795 14.404 81.8035 14.396 81.5955 14.396C80.3955 14.396 79.4915 14.708 78.8835 15.332C78.2915 15.956 77.9955 16.884 77.9955 18.116Z" fill="#CCCCCC"/>
</svg>
