<svg width="156" height="124" viewBox="0 0 156 124" fill="none" xmlns="http://www.w3.org/2000/svg">
<path d="M77.0723 45.5C45.0737 36.4994 7.62857 102.169 19.9484 116.595C19.887 117.495 12.5348 115.528 11.0902 115.237C10.615 115.141 16.4975 117.376 17.8693 118.491C25.3419 124.561 24.5638 113.326 29.5722 111.002" stroke="#1C1C1C" stroke-width="2" stroke-linecap="round"/>
<path d="M92.9234 46.7044C92.6102 46.9078 92.2608 46.9376 91.8749 46.7939C91.4922 46.6354 91.0656 46.1939 90.595 45.4693C90.1012 44.7089 89.6353 43.9621 89.1974 43.229C88.7537 42.487 88.3817 41.8065 88.0815 41.1875C87.7902 40.5626 87.6012 40.0367 87.5147 39.6096C87.4281 39.1825 87.4921 38.8993 87.7068 38.7598C87.8589 38.6611 88.0483 38.6589 88.275 38.7534C88.4958 38.8389 88.6934 39.0158 88.8677 39.2842C89.0478 39.5615 89.2621 39.9502 89.5105 40.4502C89.7589 40.9503 90.0171 41.4948 90.2852 42.0838C90.5564 42.6581 90.8278 43.2132 91.0995 43.749C91.3653 44.2759 91.6086 44.7093 91.8294 45.0492C91.9223 45.1924 92.0023 45.3057 92.0694 45.3894C92.1395 45.4583 92.1925 45.4811 92.2283 45.4579C92.3625 45.3707 92.4301 45.1615 92.4311 44.8301C92.4353 44.484 92.4019 44.0605 92.331 43.5597C92.2543 43.0499 92.1634 42.4985 92.0581 41.9055C91.947 41.3035 91.8433 40.7032 91.7469 40.1044C91.6506 39.5056 91.5849 38.9441 91.5497 38.42C91.5088 37.887 91.5202 37.4345 91.5838 37.0624C91.6417 36.6815 91.7735 36.4242 91.9792 36.2906C92.2208 36.1337 92.5199 36.1048 92.8767 36.2037C93.2367 36.288 93.5532 36.5403 93.8262 36.9607C93.9076 37.086 94.032 37.3168 94.1995 37.6531C94.3613 37.9805 94.5431 38.3584 94.7451 38.7869C94.947 39.2154 95.149 39.6439 95.3509 40.0723C95.547 40.4919 95.726 40.8653 95.8877 41.1927C96.0436 41.5112 96.1623 41.733 96.2436 41.8583C96.5457 42.3234 96.7415 42.527 96.8309 42.4689C97.0814 42.3062 97.2436 41.9783 97.3176 41.4851C97.3948 40.9771 97.4138 40.3797 97.3747 39.6929C97.3388 38.9912 97.2722 38.2523 97.1751 37.4759C97.0811 36.6849 96.9911 35.9293 96.905 35.2093C96.8444 34.8417 96.8224 34.5826 96.839 34.4319C96.8587 34.2665 96.9133 34.1547 97.0028 34.0966C97.128 34.0153 97.2879 34.0068 97.4824 34.0713C97.6858 34.13 97.8631 34.2756 98.0141 34.5082C98.0664 34.5887 98.1142 34.6721 98.1575 34.7584C98.1951 34.8358 98.225 34.9309 98.2473 35.0436C98.466 36.0462 98.6246 37.0052 98.723 37.9206C98.8156 38.8271 98.8441 39.6544 98.8085 40.4025C98.776 41.1358 98.6783 41.7589 98.5153 42.2717C98.3465 42.7756 98.1145 43.1234 97.8193 43.3151C97.3094 43.6463 96.8183 43.7617 96.3461 43.6613C95.8771 43.5462 95.4828 43.2426 95.1633 42.7506C95.0297 42.5448 94.8688 42.2677 94.6807 41.9193C94.5015 41.5651 94.3094 41.1811 94.1043 40.7674C93.9082 40.3479 93.7208 39.9418 93.5421 39.5491C93.3634 39.1564 93.2048 38.8142 93.0663 38.5226C92.9367 38.2252 92.8445 38.0244 92.7895 37.9202C92.7171 37.7891 92.663 37.7352 92.6273 37.7584C92.5915 37.7817 92.5954 37.9445 92.6391 38.2468C92.686 38.5343 92.7511 38.899 92.8345 39.3408C92.9211 39.7679 93.0074 40.2142 93.0936 40.6798C93.185 41.1927 93.2758 41.7633 93.3658 42.3917C93.459 43.0052 93.5198 43.608 93.5482 44.2001C93.5855 44.7863 93.56 45.3053 93.4718 45.7569C93.3835 46.2085 93.2007 46.5243 92.9234 46.7044ZM104.287 30.5487C104.473 30.835 104.567 31.1749 104.568 31.5684C104.563 31.9529 104.495 32.3663 104.362 32.8085C104.224 33.2418 104.046 33.6819 103.827 34.129C103.609 34.5761 103.373 34.9963 103.12 35.3897C102.866 35.7831 102.624 36.1249 102.393 36.415C102.548 36.8104 102.712 37.1422 102.887 37.4106C102.997 37.5806 103.116 37.6752 103.243 37.6945C103.37 37.7138 103.518 37.6682 103.688 37.5579C104.064 37.3139 104.418 36.9882 104.752 36.581C105.085 36.1738 105.401 35.7205 105.7 35.2211C105.999 34.7217 106.271 34.2206 106.517 33.7176C106.763 33.2147 106.981 32.7483 107.173 32.3187C107.373 31.8832 107.542 31.5258 107.678 31.2464C107.815 30.9669 107.919 30.804 107.991 30.7575C108.098 30.6878 108.202 30.6713 108.302 30.708C108.405 30.73 108.486 30.7857 108.544 30.8751C108.59 30.9467 108.569 31.158 108.479 31.509C108.397 31.8542 108.264 32.2845 108.077 32.8C107.884 33.3066 107.653 33.8511 107.383 34.4337C107.112 35.0162 106.813 35.5925 106.483 36.1625C106.163 36.7267 105.824 37.233 105.466 37.6813C105.118 38.1239 104.765 38.4614 104.407 38.6937C103.942 38.9958 103.466 39.0567 102.98 38.8763C102.494 38.6959 102.013 38.2389 101.536 37.5053C101.217 37.0133 100.957 36.4761 100.757 35.8938C100.566 35.3057 100.434 34.7109 100.361 34.1095C100.292 33.4932 100.28 32.9162 100.325 32.3782C100.373 31.8255 100.486 31.3447 100.666 30.9356C100.84 30.5175 101.074 30.2127 101.369 30.021C101.933 29.655 102.477 29.5239 103.003 29.6279C103.528 29.7319 103.956 30.0388 104.287 30.5487ZM102.004 35.1988C102.171 34.8487 102.341 34.4839 102.514 34.1043C102.687 33.7247 102.835 33.3552 102.958 32.9957C103.08 32.6363 103.148 32.2998 103.161 31.9863C103.176 31.6581 103.109 31.3777 102.958 31.1451C102.743 30.8141 102.456 30.7648 102.099 30.9972C101.875 31.1424 101.731 31.4395 101.666 31.8885C101.605 32.3226 101.607 32.836 101.674 33.4285C101.741 34.021 101.851 34.6111 102.004 35.1988ZM111.002 34.43C110.617 34.6798 110.295 34.7809 110.035 34.7334C109.775 34.6859 109.55 34.5146 109.358 34.2193C108.393 32.7343 107.654 31.008 107.139 29.0402C106.619 27.0635 106.31 24.9429 106.213 22.6784C106.204 22.3913 106.219 22.1977 106.255 22.0975C106.301 21.9915 106.377 21.9037 106.485 21.834C106.61 21.7527 106.751 21.7248 106.907 21.7503C107.064 21.7759 107.192 21.8647 107.29 22.0168C107.343 22.0973 107.404 22.3687 107.476 22.8312C107.541 23.2846 107.629 23.87 107.739 24.5873C107.848 25.3046 107.984 26.1006 108.145 26.9754C108.309 27.8353 108.507 28.7179 108.739 29.6231C108.97 30.5282 109.248 31.397 109.573 32.2293C109.581 31.7915 109.615 31.3052 109.675 30.7705C109.743 30.2299 109.83 29.6776 109.934 29.1138C110.039 28.55 110.168 28.0145 110.322 27.5075C110.485 26.9947 110.672 26.5487 110.884 26.1696C111.095 25.7905 111.336 25.5138 111.604 25.3395C111.953 25.1129 112.353 25.063 112.804 25.1897C113.258 25.3017 113.674 25.6484 114.052 26.2299C114.371 26.7219 114.565 27.3145 114.634 28.0077C114.697 28.6919 114.611 29.4216 114.377 30.1969C114.146 30.9574 113.755 31.7072 113.205 32.4461C112.649 33.1761 111.914 33.8374 111.002 34.43ZM110.393 33.3753C111.136 32.8931 111.73 32.3292 112.175 31.6837C112.621 31.0382 112.934 30.3837 113.113 29.7201C113.296 29.0419 113.367 28.417 113.327 27.8455C113.289 27.2592 113.157 26.7916 112.931 26.4428C112.768 26.1923 112.602 26.1222 112.432 26.2326C112.226 26.3662 112.026 26.636 111.832 27.042C111.638 27.4479 111.457 27.9339 111.291 28.4999C111.133 29.0602 110.993 29.6473 110.87 30.2612C110.741 30.8661 110.634 31.4447 110.547 31.997C110.47 32.5434 110.418 33.0028 110.393 33.3753ZM119.816 29.1063C119.62 29.2341 119.43 29.2747 119.247 29.2281C119.079 29.1847 118.948 29.0914 118.855 28.9482C118.774 28.823 118.752 28.6719 118.79 28.4948C118.831 28.303 118.92 28.0984 119.059 27.8812C119.295 27.4609 119.508 27.0552 119.699 26.664C119.9 26.267 120.028 25.8972 120.086 25.5547C120.143 25.2122 120.093 24.9202 119.936 24.6787C119.803 24.4729 119.634 24.3599 119.43 24.3397C119.22 24.3106 118.999 24.3715 118.767 24.5226C118.632 24.6097 118.462 24.7585 118.255 24.9691C118.043 25.1707 117.814 25.3957 117.568 25.6442C117.326 25.878 117.088 26.1089 116.854 26.3368C116.615 26.5558 116.401 26.7264 116.213 26.8484C115.874 27.0691 115.566 27.1542 115.292 27.1035C115.011 27.0439 114.778 26.871 114.592 26.5847C114.499 26.4416 114.445 26.1717 114.429 25.7751C114.413 25.3784 114.431 24.9156 114.481 24.3866C114.535 23.8429 114.616 23.2817 114.723 22.7031C114.831 22.1245 114.96 21.5699 115.112 21.0392C115.272 20.5026 115.443 20.0417 115.626 19.6563C115.817 19.2651 116.015 19.0027 116.221 18.8691C116.427 18.7354 116.627 18.7009 116.821 18.7653C117.016 18.8298 117.18 18.9649 117.313 19.1707C117.418 19.3317 117.481 19.4878 117.503 19.6389C117.519 19.7812 117.462 19.9388 117.333 20.1118C117.213 20.2789 116.985 20.4774 116.651 20.7071C116.483 21.211 116.318 21.7697 116.156 22.3831C115.998 22.9818 115.88 23.5736 115.802 24.1585C115.727 24.7286 115.729 25.2301 115.806 25.663C116.037 25.3728 116.34 25.0555 116.714 24.7109C117.091 24.3515 117.499 24.0295 117.937 23.7448C118.626 23.2975 119.238 23.1229 119.772 23.2211C120.309 23.3044 120.741 23.5966 121.066 24.0976C121.275 24.4196 121.39 24.8219 121.411 25.3044C121.435 25.7722 121.382 26.2582 121.252 26.7626C121.121 27.2669 120.931 27.7277 120.68 28.1448C120.435 28.5708 120.147 28.8913 119.816 29.1063ZM126.61 24.752C126.207 25.0134 125.771 25.125 125.301 25.0868C124.834 25.0338 124.376 24.8479 123.927 24.5288C123.479 24.2098 123.071 23.7685 122.705 23.2049C122.322 22.6145 122.003 21.976 121.747 21.2895C121.492 20.603 121.305 19.9425 121.186 19.3079C121.066 18.6733 121.018 18.1387 121.041 17.704C121.058 17.2605 121.151 16.9835 121.321 16.8731C121.447 16.7918 121.576 16.7652 121.708 16.7934C121.841 16.8217 121.957 16.9118 122.056 17.0639C122.079 17.0997 122.125 17.2482 122.192 17.5093C122.254 17.7616 122.339 18.088 122.447 18.4887C122.549 18.8805 122.674 19.3081 122.822 19.7714C122.97 20.2347 123.142 20.6954 123.338 21.1534C123.534 21.6113 123.75 22.0237 123.989 22.3905C124.395 23.0167 124.741 23.4218 125.026 23.6057C125.314 23.7748 125.592 23.7722 125.86 23.598C126.513 23.1739 127.011 22.6089 127.354 21.9029C127.7 21.1822 127.932 20.3832 128.049 19.5059C128.169 18.6139 128.211 17.6898 128.175 16.7338C127.891 16.9818 127.61 17.2151 127.332 17.4337C127.049 17.6433 126.776 17.8397 126.513 18.0229C126.26 18.2003 126.069 18.2794 125.942 18.2601C125.815 18.2408 125.702 18.1552 125.604 18.0031C125.508 17.8747 125.483 17.7191 125.529 17.5362C125.585 17.3475 125.677 17.2051 125.805 17.1091C126.185 16.8118 126.567 16.4999 126.953 16.1732C127.338 15.8464 127.714 15.5137 128.079 15.1749C128.026 14.6239 127.962 14.0743 127.885 13.5261C127.809 12.9778 127.727 12.4591 127.638 11.9698C127.448 11.2663 127.293 10.5973 127.174 9.96273C127.048 9.3192 126.987 8.77408 126.989 8.32736C126.986 7.87169 127.074 7.58576 127.253 7.46957C127.557 7.27205 127.808 7.32537 128.005 7.62952C128.046 7.69214 128.119 7.89273 128.224 8.23128C128.33 8.56983 128.459 9.0137 128.612 9.56289C128.774 10.1063 128.955 10.7268 129.153 11.4245C129.346 12.1132 129.555 12.8361 129.78 13.5933C130.48 12.9094 131.112 12.2765 131.675 11.6945C132.242 11.0977 132.708 10.6108 133.073 10.2335C133.433 9.84729 133.653 9.62804 133.733 9.57576C133.85 9.50023 133.981 9.49738 134.128 9.5672C134.27 9.62808 134.372 9.70772 134.436 9.80612C134.488 9.88663 134.411 10.0898 134.203 10.4157C134.003 10.7358 133.701 11.142 133.296 11.6341C132.894 12.1115 132.423 12.6399 131.883 13.2192C131.347 13.7838 130.778 14.3568 130.176 14.9383C130.446 15.8439 130.72 16.7348 130.996 17.6109C131.272 18.4871 131.54 19.2802 131.797 19.9904C131.972 20.4363 131.903 20.761 131.59 20.9643C131.429 21.0689 131.282 21.107 131.15 21.0788C131.026 21.0448 130.9 20.9293 130.772 20.7325C130.755 20.7057 130.69 20.557 130.578 20.2864C130.469 20.0011 130.335 19.6489 130.178 19.2298C130.014 18.8018 129.846 18.3575 129.675 17.8968C129.497 17.4272 129.335 16.9918 129.189 16.5906C129.261 17.7394 129.234 18.8442 129.109 19.9048C128.984 20.9654 128.719 21.9194 128.316 22.7666C127.921 23.608 127.352 24.2698 126.61 24.752ZM120.749 15.3751C120.534 15.5145 120.312 15.5636 120.082 15.5223C119.86 15.4753 119.686 15.3534 119.558 15.1566C119.401 14.915 119.355 14.6586 119.421 14.3872C119.489 14.101 119.64 13.8824 119.872 13.7313C120.132 13.5629 120.378 13.5111 120.611 13.576C120.838 13.632 121.027 13.7763 121.178 14.0089C121.3 14.1968 121.324 14.4293 121.25 14.7065C121.175 14.9837 121.009 15.2066 120.749 15.3751ZM138.491 8.33697C138.676 8.62324 138.77 8.96313 138.771 9.35664C138.767 9.7412 138.698 10.1546 138.565 10.5968C138.427 11.03 138.249 11.4702 138.03 11.9173C137.812 12.3644 137.576 12.7846 137.323 13.178C137.069 13.5714 136.827 13.9132 136.596 14.2033C136.751 14.5986 136.916 14.9305 137.09 15.1989C137.2 15.3689 137.319 15.4635 137.446 15.4828C137.573 15.502 137.721 15.4565 137.891 15.3461C138.267 15.1021 138.622 14.7765 138.955 14.3693C139.288 13.962 139.604 13.5087 139.903 13.0094C140.202 12.51 140.474 12.0088 140.72 11.5059C140.966 11.0029 141.184 10.5366 141.376 10.107C141.577 9.6715 141.745 9.31405 141.882 9.03463C142.018 8.75521 142.122 8.59226 142.194 8.54578C142.301 8.47607 142.405 8.45956 142.505 8.49627C142.608 8.51823 142.689 8.57393 142.747 8.66339C142.793 8.73496 142.772 8.94624 142.682 9.29723C142.601 9.64241 142.467 10.0728 142.28 10.5883C142.088 11.0948 141.856 11.6394 141.586 12.2219C141.315 12.8045 141.016 13.3808 140.686 13.9508C140.366 14.515 140.027 15.0212 139.669 15.4696C139.321 15.9122 138.968 16.2496 138.61 16.482C138.145 16.7841 137.669 16.8449 137.183 16.6645C136.697 16.4841 136.216 16.0271 135.74 15.2936C135.42 14.8015 135.16 14.2644 134.96 13.6821C134.769 13.094 134.637 12.4992 134.564 11.8977C134.495 11.2815 134.483 10.7044 134.528 10.1665C134.576 9.6138 134.689 9.13292 134.869 8.72383C135.043 8.3058 135.277 8.00093 135.572 7.80922C136.136 7.44322 136.68 7.3122 137.206 7.41616C137.731 7.52013 138.159 7.82706 138.491 8.33697ZM136.207 12.987C136.374 12.637 136.544 12.2722 136.717 11.8926C136.89 11.513 137.038 11.1435 137.161 10.784C137.283 10.4245 137.351 10.0881 137.364 9.7746C137.38 9.44639 137.312 9.16598 137.161 8.93339C136.946 8.6024 136.659 8.55309 136.302 8.78547C136.078 8.9307 135.934 9.22779 135.869 9.67672C135.808 10.1109 135.811 10.6242 135.877 11.2168C135.944 11.8093 136.054 12.3994 136.207 12.987ZM103.374 62.2099C102.846 62.5527 102.3 62.6215 101.734 62.4165C101.169 62.2115 100.677 61.7869 100.258 61.1428C100.107 60.9102 99.9789 60.6439 99.8731 60.3438C99.7703 60.0289 99.7029 59.7293 99.6709 59.4449C99.5676 59.4229 99.4632 59.3699 99.3577 59.2858C99.2464 59.1927 99.1355 59.0612 99.0252 58.8912C98.6824 58.3634 98.4582 57.8223 98.3524 57.2677C98.2467 56.7132 98.2368 56.179 98.3229 55.6653C98.4031 55.1426 98.5641 54.6756 98.8057 54.2643C99.0563 53.8472 99.3695 53.5166 99.7452 53.2726C100.362 52.8718 101.009 52.7701 101.684 52.9676C102.353 53.1561 102.981 53.7021 103.568 54.6057C103.876 55.0798 104.118 55.6093 104.294 56.1943C104.48 56.7735 104.6 57.3696 104.655 57.9827C104.718 58.59 104.71 59.1742 104.629 59.7354C104.557 60.2907 104.417 60.789 104.207 61.2303C104.001 61.6568 103.723 61.9834 103.374 62.2099ZM100.26 58.4135C100.36 58.4502 100.448 58.5267 100.524 58.643C100.611 58.7772 100.671 58.9288 100.705 59.0979C100.747 59.2611 100.817 59.4764 100.914 59.7439C101.012 60.0113 101.2 60.3597 101.479 60.7891C101.758 61.2185 102.067 61.3229 102.407 61.1021C102.783 60.8581 103.036 60.4839 103.166 59.9796C103.29 59.4663 103.324 58.8912 103.267 58.2544C103.209 57.6176 103.073 56.9873 102.859 56.3634C102.648 55.7248 102.385 55.1639 102.071 54.6808C101.868 54.3677 101.668 54.1863 101.47 54.1366C101.267 54.0779 101.013 54.1474 100.709 54.3449C100.396 54.5482 100.139 54.8676 99.9382 55.3031C99.7408 55.7238 99.6465 56.1857 99.6552 56.6887C99.664 57.1918 99.8136 57.667 100.104 58.1143C100.168 58.2127 100.22 58.3124 100.26 58.4135ZM110.027 58.2521C109.714 58.4554 109.364 58.4852 108.979 58.3415C108.596 58.1831 108.169 57.7416 107.699 57.0169C107.205 56.2565 106.739 55.5098 106.301 54.7767C105.857 54.0347 105.485 53.3541 105.185 52.7351C104.894 52.1103 104.705 51.5844 104.618 51.1573C104.532 50.7302 104.596 50.4469 104.81 50.3075C104.963 50.2088 105.152 50.2066 105.379 50.301C105.599 50.3865 105.797 50.5635 105.971 50.8319C106.151 51.1092 106.366 51.4979 106.614 51.9979C106.863 52.4979 107.121 53.0425 107.389 53.6315C107.66 54.2058 107.931 54.7608 108.203 55.2967C108.469 55.8235 108.712 56.2569 108.933 56.5969C109.026 56.74 109.106 56.8534 109.173 56.9371C109.243 57.006 109.296 57.0288 109.332 57.0055C109.466 56.9184 109.534 56.7092 109.535 56.3778C109.539 56.0317 109.506 55.6082 109.435 55.1074C109.358 54.5975 109.267 54.0461 109.162 53.4532C109.051 52.8512 108.947 52.2509 108.851 51.6521C108.754 51.0532 108.688 50.4918 108.653 49.9677C108.612 49.4347 108.624 48.9821 108.687 48.6101C108.745 48.2291 108.877 47.9719 109.083 47.8382C109.324 47.6814 109.624 47.6524 109.98 47.7514C110.34 47.8356 110.657 48.088 110.93 48.5084C111.011 48.6337 111.136 48.8645 111.303 49.2008C111.465 49.5282 111.647 49.9061 111.849 50.3346C112.051 50.7631 112.253 51.1915 112.455 51.62C112.651 52.0395 112.83 52.413 112.991 52.7404C113.147 53.0588 113.266 53.2807 113.347 53.4059C113.649 53.8711 113.845 54.0747 113.935 54.0166C114.185 53.8539 114.347 53.526 114.421 53.0328C114.498 52.5248 114.517 51.9274 114.478 51.2405C114.442 50.5389 114.376 49.7999 114.279 49.0236C114.185 48.2325 114.095 47.477 114.009 46.757C113.948 46.3894 113.926 46.1303 113.943 45.9796C113.962 45.8141 114.017 45.7024 114.106 45.6443C114.232 45.5629 114.392 45.5545 114.586 45.619C114.789 45.6777 114.967 45.8233 115.118 46.0559C115.17 46.1364 115.218 46.2198 115.261 46.3061C115.299 46.3835 115.329 46.4785 115.351 46.5912C115.57 47.5939 115.728 48.5529 115.827 49.4683C115.919 50.3747 115.948 51.202 115.912 51.9501C115.88 52.6835 115.782 53.3066 115.619 53.8194C115.45 54.3233 115.218 54.6711 114.923 54.8628C114.413 55.1939 113.922 55.3093 113.45 55.209C112.981 55.0938 112.586 54.7903 112.267 54.2983C112.133 54.0925 111.972 53.8154 111.784 53.467C111.605 53.1128 111.413 52.7288 111.208 52.3151C111.012 51.8955 110.824 51.4894 110.646 51.0967C110.467 50.7041 110.308 50.3619 110.17 50.0703C110.04 49.7729 109.948 49.572 109.893 49.4678C109.821 49.3368 109.767 49.2829 109.731 49.3061C109.695 49.3294 109.699 49.4921 109.743 49.7944C109.79 50.082 109.855 50.4467 109.938 50.8885C110.025 51.3156 110.111 51.7619 110.197 52.2274C110.289 52.7404 110.379 53.311 110.469 53.9393C110.563 54.5529 110.623 55.1557 110.652 55.7478C110.689 56.334 110.664 56.8529 110.575 57.3045C110.487 57.7562 110.304 58.072 110.027 58.2521ZM120.604 50.391C120.345 50.5595 120.016 50.5629 119.619 50.4013C119.222 50.2398 118.872 49.9264 118.57 49.4612C118.239 48.9513 117.951 48.362 117.708 47.6934C117.473 47.019 117.264 46.3152 117.081 45.5823C116.892 44.8403 116.712 44.1237 116.543 43.4323C116.512 43.2869 116.52 43.1613 116.565 43.0553C116.614 42.9346 116.728 42.8161 116.907 42.7C117.229 42.4908 117.492 42.5428 117.695 42.8559C117.742 42.9275 117.81 43.1117 117.901 43.4087C117.993 43.7056 118.099 44.0753 118.221 44.5176C118.352 44.9541 118.498 45.4248 118.661 45.9297C118.818 46.4257 118.991 46.9174 119.18 47.4049C119.37 47.8924 119.566 48.3312 119.768 48.7212C119.812 48.4761 119.822 48.139 119.798 47.7097C119.782 47.2746 119.754 46.7905 119.713 46.2575C119.667 45.7155 119.629 45.1677 119.6 44.6141C119.565 44.0515 119.554 43.5247 119.566 43.0338C119.581 42.528 119.633 42.0996 119.723 41.7487C119.816 41.3829 119.961 41.1361 120.158 41.0083C120.444 40.8224 120.744 40.755 121.057 40.8061C121.373 40.8425 121.727 41.045 122.119 41.4136C122.514 41.7675 122.968 42.338 123.479 43.1253C123.752 43.5457 124.048 43.9132 124.367 44.2277C124.694 44.5364 125.025 44.7415 125.358 44.8432C125.694 44.9301 126.014 44.8748 126.318 44.6772C126.774 44.381 127.129 44.0361 127.382 43.6427C127.63 43.2404 127.817 42.8521 127.942 42.4778C128.071 42.0889 128.173 41.7558 128.247 41.4785C128.316 41.1924 128.399 41.0173 128.498 40.9534C128.703 40.8198 128.876 40.8604 129.015 41.0751C129.074 41.1645 129.099 41.3512 129.093 41.6352C129.09 41.9044 129.05 42.2353 128.975 42.6278C128.902 43.0057 128.791 43.4023 128.641 43.8176C128.494 44.2182 128.301 44.5976 128.063 44.9557C127.834 45.3079 127.554 45.5915 127.223 45.8065C126.606 46.2073 126.022 46.4148 125.472 46.4289C124.93 46.4372 124.385 46.225 123.837 45.7923C123.298 45.3539 122.727 44.6695 122.122 43.7391C121.791 43.2292 121.519 42.8783 121.305 42.6864C121.095 42.4797 120.887 42.3855 120.683 42.4037C120.697 42.6613 120.733 43.0197 120.79 43.479C120.84 43.9293 120.891 44.4373 120.94 45.003C120.998 45.5629 121.046 46.1359 121.083 46.7222C121.124 47.2937 121.14 47.8368 121.13 48.3515C121.121 48.8662 121.077 49.308 120.999 49.6768C120.915 50.0368 120.783 50.2748 120.604 50.391ZM130.836 35.6573C131.208 36.2299 131.295 36.9617 131.098 37.8528C130.901 38.744 130.389 39.7763 129.561 40.9497C129.67 41.1966 129.775 41.3961 129.873 41.5482C130.106 41.906 130.319 42.1364 130.513 42.2393C130.716 42.3365 130.929 42.3124 131.153 42.1672C131.484 41.9522 131.788 41.6082 132.066 41.1352C132.338 40.6533 132.586 40.1045 132.809 39.4889C133.027 38.8642 133.224 38.2276 133.4 37.5788C133.586 36.9242 133.75 36.3152 133.893 35.7519C134.03 35.1795 134.157 34.7092 134.274 34.3407C134.385 33.9634 134.485 33.7457 134.575 33.6876C134.7 33.6062 134.84 33.5976 134.996 33.6616C135.147 33.7166 135.283 33.8381 135.405 34.026C135.556 34.2586 135.717 34.5356 135.887 34.8572C136.052 35.1699 136.224 35.5033 136.403 35.8575C136.212 35.0534 136.134 34.2966 136.169 33.5869C136.207 32.8625 136.323 32.2086 136.517 31.6251C136.71 31.0416 136.947 30.5445 137.227 30.1337C137.507 29.7228 137.786 29.4274 138.063 29.2473C138.322 29.0788 138.547 29.0031 138.736 29.0202C138.925 29.0372 139.063 29.1129 139.15 29.2471C139.232 29.3723 139.249 29.5264 139.202 29.7092C139.159 29.8773 138.993 30.1697 138.704 30.5864C138.364 31.0616 138.071 31.5506 137.825 32.0536C137.588 32.5508 137.436 33.1199 137.37 33.7612C137.297 34.3934 137.35 35.1411 137.529 36.0042C137.708 36.8673 138.055 37.9011 138.57 39.1056C138.674 39.3435 138.71 39.5362 138.678 39.6838C138.653 39.8403 138.577 39.9592 138.452 40.0405C138.363 40.0986 138.247 40.1165 138.105 40.0941C137.969 40.0806 137.785 39.9526 137.551 39.7102C137.311 39.4588 136.994 39.0289 136.599 38.4206C136.332 38.0091 136.059 37.5502 135.781 37.0438C135.512 36.5317 135.247 35.9856 134.984 35.4055C134.863 36.1201 134.712 36.886 134.531 37.7033C134.343 38.5118 134.118 39.3005 133.854 40.0695C133.585 40.8296 133.275 41.5078 132.924 42.1042C132.574 42.7006 132.175 43.144 131.728 43.4345C131.254 43.7424 130.766 43.8238 130.265 43.6787C129.764 43.5336 129.301 43.1345 128.877 42.4815C128.389 41.73 128.04 40.9773 127.83 40.2233C127.62 39.4692 127.524 38.7625 127.541 38.1029C127.552 37.4344 127.655 36.8587 127.85 36.3758C128.045 35.893 128.308 35.5441 128.639 35.3291C129.086 35.0386 129.506 34.9313 129.899 35.007C130.286 35.0738 130.598 35.2906 130.836 35.6573ZM129.14 39.8307C129.286 39.4686 129.44 39.0696 129.602 38.6336C129.773 38.1919 129.892 37.7777 129.959 37.3909C130.029 36.9894 129.997 36.6857 129.863 36.48C129.782 36.3547 129.693 36.2856 129.595 36.2726C129.498 36.2596 129.373 36.3025 129.221 36.4012C128.979 36.5581 128.834 36.8241 128.785 37.1992C128.73 37.5654 128.742 37.9842 128.819 38.4556C128.89 38.918 128.997 39.3764 129.14 39.8307Z" fill="black"/>
</svg>
