<svg width="27" height="37" viewBox="0 0 27 37" fill="none" xmlns="http://www.w3.org/2000/svg">
<path d="M14.304 36.48C11.872 36.48 9.68 36.048 7.728 35.184C5.808 34.288 4.24 32.992 3.024 31.296C1.84 29.568 1.152 27.472 0.96 25.008H8.304C8.56 26.992 9.168 28.464 10.128 29.424C11.088 30.352 12.384 30.816 14.016 30.816C15.424 30.816 16.592 30.4 17.52 29.568C18.48 28.736 18.96 27.52 18.96 25.92C18.96 24.384 18.496 23.152 17.568 22.224C16.672 21.264 15.136 20.784 12.96 20.784H9.888V15.216H12.816C14.704 15.216 16.064 14.8 16.896 13.968C17.728 13.136 18.144 12.08 18.144 10.8C18.144 9.584 17.824 8.592 17.184 7.824C16.544 7.024 15.456 6.624 13.92 6.624C12.608 6.624 11.472 7.024 10.512 7.824C9.552 8.624 8.96 9.84 8.736 11.472H1.344C1.632 9.296 2.32 7.424 3.408 5.856C4.496 4.288 5.952 3.088 7.776 2.256C9.6 1.392 11.728 0.959999 14.16 0.959999C16.592 0.959999 18.672 1.344 20.4 2.112C22.16 2.848 23.52 3.904 24.48 5.28C25.44 6.656 25.92 8.304 25.92 10.224C25.92 11.824 25.552 13.232 24.816 14.448C24.08 15.664 23.152 16.608 22.032 17.28C20.944 17.952 19.84 18.288 18.72 18.288L18.672 17.28C20.368 17.28 21.824 17.696 23.04 18.528C24.256 19.328 25.184 20.416 25.824 21.792C26.464 23.136 26.784 24.64 26.784 26.304C26.784 28.384 26.24 30.192 25.152 31.728C24.064 33.264 22.576 34.448 20.688 35.28C18.8 36.08 16.672 36.48 14.304 36.48Z" fill="url(#paint0_linear_288_10328)"/>
<defs>
<linearGradient id="paint0_linear_288_10328" x1="14" y1="-10" x2="14" y2="48" gradientUnits="userSpaceOnUse">
<stop stop-color="#737373"/>
<stop offset="1" stop-color="#737373" stop-opacity="0"/>
</linearGradient>
</defs>
</svg>
