<svg width="27" height="36" viewBox="0 0 27 36" fill="none" xmlns="http://www.w3.org/2000/svg">
<path d="M1.2 36V30.24C4.368 27.648 7.008 25.424 9.12 23.568C11.264 21.68 12.96 20.016 14.208 18.576C15.488 17.136 16.4 15.824 16.944 14.64C17.488 13.456 17.76 12.272 17.76 11.088C17.76 9.68 17.376 8.592 16.608 7.824C15.872 7.024 14.832 6.624 13.488 6.624C12.08 6.624 10.912 7.056 9.984 7.92C9.056 8.784 8.48 9.968 8.256 11.472H0.864C1.216 8.208 2.544 5.648 4.848 3.792C7.152 1.904 10.128 0.959999 13.776 0.959999C17.488 0.959999 20.384 1.92 22.464 3.84C24.544 5.728 25.584 8.368 25.584 11.76C25.584 13.36 25.312 14.896 24.768 16.368C24.256 17.84 23.392 19.36 22.176 20.928C20.96 22.496 19.296 24.224 17.184 26.112C15.104 27.968 12.496 30.096 9.36 32.496L7.584 30.336H26.256V36H1.2Z" fill="url(#paint0_linear_288_10327)"/>
<defs>
<linearGradient id="paint0_linear_288_10327" x1="14" y1="-10" x2="14" y2="48" gradientUnits="userSpaceOnUse">
<stop stop-color="#737373"/>
<stop offset="1" stop-color="#737373" stop-opacity="0"/>
</linearGradient>
</defs>
</svg>
