<svg width="166" height="68" viewBox="0 0 166 68" fill="none" xmlns="http://www.w3.org/2000/svg">
<path d="M69.2891 21.1484C92.5004 -2.64569 157.764 35.5038 154.308 54.1569C154.81 54.9049 160.194 49.5255 161.3 48.5511C161.663 48.2306 157.687 53.1078 157.056 54.7589C153.62 63.7523 148.676 53.6329 143.176 54.1246" stroke="#1C1C1C" stroke-width="2" stroke-linecap="round"/>
<path d="M10.8511 46.7044C10.538 46.9078 10.1885 46.9376 9.80266 46.7939C9.41995 46.6354 8.99331 46.1939 8.52274 45.4693C8.02893 44.7089 7.56307 43.9621 7.12515 43.229C6.68142 42.487 6.30943 41.8065 6.00919 41.1875C5.7179 40.5626 5.52897 40.0367 5.44239 39.6096C5.35582 39.1825 5.41988 38.8993 5.63458 38.7598C5.78666 38.6611 5.97604 38.6589 6.20271 38.7534C6.42358 38.8389 6.62116 39.0158 6.79544 39.2842C6.97553 39.5615 7.18979 39.9502 7.43821 40.4502C7.68663 40.9503 7.94486 41.4948 8.21292 42.0838C8.48411 42.6581 8.75554 43.2132 9.02719 43.749C9.29304 44.2759 9.53634 44.7093 9.7571 45.0492C9.85006 45.1924 9.93005 45.3057 9.99709 45.3894C10.0673 45.4583 10.1203 45.4811 10.156 45.4579C10.2902 45.3707 10.3578 45.1615 10.3589 44.8301C10.363 44.484 10.3297 44.0605 10.2588 43.5597C10.1821 43.0499 10.0911 42.4985 9.9858 41.9055C9.87471 41.3035 9.77099 40.7032 9.67465 40.1044C9.57831 39.5056 9.51259 38.9441 9.47748 38.42C9.43656 37.887 9.44793 37.4345 9.51158 37.0624C9.56943 36.6815 9.70122 36.4242 9.90698 36.2906C10.1485 36.1337 10.4477 36.1048 10.8045 36.2037C11.1644 36.288 11.4809 36.5403 11.754 36.9607C11.8353 37.086 11.9597 37.3168 12.1273 37.6531C12.289 37.9805 12.4709 38.3584 12.6728 38.7869C12.8747 39.2154 13.0767 39.6439 13.2786 40.0723C13.4748 40.4919 13.6537 40.8653 13.8154 41.1927C13.9714 41.5112 14.09 41.733 14.1713 41.8583C14.4734 42.3234 14.6692 42.527 14.7587 42.4689C15.0091 42.3062 15.1714 41.9783 15.2454 41.4851C15.3225 40.9771 15.3415 40.3797 15.3025 39.6929C15.2665 38.9912 15.2 38.2523 15.1028 37.4759C15.0088 36.6849 14.9188 35.9293 14.8328 35.2093C14.7721 34.8417 14.7501 34.5826 14.7667 34.4319C14.7864 34.2665 14.841 34.1547 14.9305 34.0966C15.0557 34.0153 15.2156 34.0068 15.4101 34.0713C15.6135 34.13 15.7908 34.2756 15.9418 34.5082C15.9941 34.5887 16.0419 34.6721 16.0853 34.7584C16.1228 34.8358 16.1527 34.9309 16.175 35.0436C16.3937 36.0462 16.5523 37.0052 16.6507 37.9206C16.7434 38.8271 16.7719 39.6544 16.7362 40.4025C16.7037 41.1358 16.606 41.7589 16.443 42.2717C16.2742 42.7756 16.0422 43.1234 15.747 43.3151C15.2371 43.6463 14.746 43.7617 14.2739 43.6613C13.8048 43.5462 13.4106 43.2426 13.091 42.7506C12.9574 42.5448 12.7966 42.2677 12.6084 41.9193C12.4293 41.5651 12.2372 41.1811 12.0321 40.7674C11.8359 40.3479 11.6485 39.9418 11.4698 39.5491C11.2911 39.1564 11.1325 38.8142 10.994 38.5226C10.8645 38.2252 10.7722 38.0244 10.7172 37.9202C10.6449 37.7891 10.5908 37.7352 10.555 37.7584C10.5192 37.7817 10.5232 37.9445 10.5669 38.2468C10.6137 38.5343 10.6788 38.899 10.7623 39.3408C10.8488 39.7679 10.9352 40.2142 11.0213 40.6798C11.1127 41.1927 11.2035 41.7633 11.2936 42.3917C11.3868 43.0052 11.4476 43.608 11.4759 44.2001C11.5133 44.7863 11.4878 45.3053 11.3995 45.7569C11.3112 46.2085 11.1284 46.5243 10.8511 46.7044ZM22.2152 30.5487C22.4011 30.835 22.4946 31.1749 22.4958 31.5684C22.4912 31.9529 22.4226 32.3663 22.29 32.8085C22.1517 33.2418 21.9733 33.6819 21.7549 34.129C21.5365 34.5761 21.3006 34.9963 21.0474 35.3897C20.7941 35.7831 20.5518 36.1249 20.3205 36.415C20.4755 36.8104 20.6402 37.1422 20.8145 37.4106C20.9248 37.5806 21.0435 37.6752 21.1705 37.6945C21.2975 37.7138 21.446 37.6682 21.6159 37.5579C21.9917 37.3139 22.3462 36.9882 22.6795 36.581C23.0128 36.1738 23.3289 35.7205 23.6278 35.2211C23.9268 34.7217 24.1991 34.2206 24.4448 33.7176C24.6905 33.2147 24.9091 32.7483 25.1007 32.3187C25.3012 31.8832 25.4697 31.5258 25.6062 31.2464C25.7427 30.9669 25.8467 30.804 25.9183 30.7575C26.0257 30.6878 26.1294 30.6713 26.2296 30.708C26.3329 30.73 26.4135 30.7857 26.4716 30.8751C26.5181 30.9467 26.4963 31.158 26.4063 31.509C26.3252 31.8542 26.1913 32.2845 26.0047 32.8C25.8122 33.3066 25.5808 33.8511 25.3104 34.4337C25.0401 35.0162 24.7402 35.5925 24.4109 36.1625C24.0905 36.7267 23.7515 37.233 23.3941 37.6813C23.0455 38.1239 22.6924 38.4614 22.3345 38.6937C21.8693 38.9958 21.3937 39.0567 20.9077 38.8763C20.4217 38.6959 19.9406 38.2389 19.4642 37.5053C19.1447 37.0133 18.8849 36.4761 18.6848 35.8938C18.4936 35.3057 18.3617 34.7109 18.2891 34.1095C18.2196 33.4932 18.2073 32.9162 18.2523 32.3782C18.3003 31.8255 18.4141 31.3447 18.5936 30.9356C18.7673 30.5175 19.0017 30.2127 19.2969 30.021C19.8605 29.655 20.405 29.5239 20.9304 29.6279C21.4558 29.7319 21.884 30.0388 22.2152 30.5487ZM19.9313 35.1988C20.0983 34.8487 20.2683 34.4839 20.4415 34.1043C20.6148 33.7247 20.7627 33.3552 20.8854 32.9957C21.0081 32.6363 21.0757 32.2998 21.0884 31.9863C21.1042 31.6581 21.0365 31.3777 20.8855 31.1451C20.6705 30.8141 20.3841 30.7648 20.0263 30.9972C19.8027 31.1424 19.6585 31.4395 19.594 31.8885C19.5325 32.3226 19.5352 32.836 19.602 33.4285C19.6689 34.021 19.7786 34.6111 19.9313 35.1988ZM28.9295 34.43C28.5449 34.6798 28.2226 34.7809 27.9628 34.7334C27.7031 34.6859 27.4773 34.5146 27.2856 34.2193C26.3212 32.7343 25.5816 31.008 25.0669 29.0402C24.5463 27.0635 24.2375 24.9429 24.1405 22.6784C24.1322 22.3913 24.1463 22.1977 24.183 22.0975C24.2287 21.9915 24.3052 21.9037 24.4125 21.834C24.5378 21.7527 24.6787 21.7248 24.8352 21.7503C24.9917 21.7759 25.1193 21.8647 25.218 22.0168C25.2703 22.0973 25.3321 22.3687 25.4035 22.8312C25.469 23.2846 25.5567 23.87 25.6664 24.5873C25.7761 25.3046 25.9115 26.1006 26.0725 26.9754C26.2367 27.8353 26.4347 28.7179 26.6664 29.6231C26.8981 30.5282 27.1761 31.397 27.5004 32.2293C27.5086 31.7915 27.5426 31.3052 27.6023 30.7705C27.6709 30.2299 27.7575 29.6776 27.8619 29.1138C27.9663 28.55 28.0955 28.0145 28.2496 27.5075C28.4126 26.9947 28.5999 26.5487 28.8116 26.1696C29.0232 25.7905 29.2632 25.5138 29.5316 25.3395C29.8805 25.1129 30.2805 25.063 30.7317 25.1897C31.1859 25.3017 31.6019 25.6484 31.9795 26.2299C32.299 26.7219 32.4931 27.3145 32.5617 28.0077C32.6244 28.6919 32.5387 29.4216 32.3045 30.1969C32.0735 30.9574 31.6828 31.7072 31.1324 32.4461C30.5763 33.1761 29.842 33.8374 28.9295 34.43ZM28.3209 33.3753C29.0634 32.8931 29.6575 32.3292 30.1031 31.6837C30.5488 31.0382 30.8614 30.3837 31.041 29.7201C31.2237 29.0419 31.2949 28.417 31.2544 27.8455C31.2171 27.2592 31.0852 26.7916 30.8586 26.4428C30.6959 26.1923 30.5296 26.1222 30.3596 26.2326C30.1539 26.3662 29.9539 26.636 29.7596 27.042C29.5654 27.4479 29.385 27.9339 29.2184 28.4999C29.0608 29.0602 28.9206 29.6473 28.7978 30.2612C28.6692 30.8661 28.5616 31.4447 28.4751 31.997C28.3975 32.5434 28.3461 33.0028 28.3209 33.3753ZM37.7442 29.1063C37.5474 29.2341 37.3576 29.2747 37.1747 29.2281C37.0066 29.1847 36.876 29.0914 36.7831 28.9482C36.7018 28.823 36.6799 28.6719 36.7176 28.4948C36.7583 28.303 36.8481 28.0984 36.9868 27.8812C37.2226 27.4609 37.4361 27.0552 37.6272 26.664C37.8272 26.267 37.956 25.8972 38.0133 25.5547C38.0707 25.2122 38.021 24.9202 37.8641 24.6787C37.7305 24.4729 37.5617 24.3599 37.3578 24.3397C37.1481 24.3106 36.927 24.3715 36.6944 24.5226C36.5602 24.6097 36.3898 24.7585 36.1831 24.9691C35.9706 25.1707 35.7416 25.3957 35.496 25.6442C35.2535 25.878 35.0155 26.1089 34.782 26.3368C34.5427 26.5558 34.3291 26.7264 34.1412 26.8484C33.8013 27.0691 33.494 27.1542 33.2195 27.1035C32.9391 27.0439 32.706 26.871 32.5201 26.5847C32.4271 26.4416 32.3727 26.1717 32.3568 25.7751C32.3408 25.3784 32.3582 24.9156 32.409 24.3866C32.4629 23.8429 32.5436 23.2817 32.6512 22.7031C32.7587 22.1245 32.8882 21.5699 33.0396 21.0392C33.1999 20.5026 33.3711 20.0417 33.5533 19.6563C33.7444 19.2651 33.9428 19.0027 34.1485 18.8691C34.3543 18.7354 34.5544 18.7009 34.7489 18.7653C34.9434 18.8298 35.1075 18.9649 35.2411 19.1707C35.3457 19.3317 35.4089 19.4878 35.4307 19.6389C35.4467 19.7812 35.3901 19.9388 35.2608 20.1118C35.1405 20.2789 34.9132 20.4774 34.5791 20.7071C34.4103 21.211 34.2453 21.7697 34.084 22.3831C33.9259 22.9818 33.8079 23.5736 33.7298 24.1585C33.6549 24.7286 33.6562 25.2301 33.7339 25.663C33.9652 25.3728 34.2678 25.0555 34.6418 24.7109C35.0189 24.3515 35.4266 24.0295 35.865 23.7448C36.5538 23.2975 37.1654 23.1229 37.6997 23.2211C38.2372 23.3044 38.6686 23.5966 38.9939 24.0976C39.2031 24.4196 39.318 24.8219 39.3389 25.3044C39.3628 25.7722 39.3096 26.2582 39.1793 26.7626C39.0489 27.2669 38.8585 27.7277 38.6079 28.1448C38.3631 28.5708 38.0752 28.8913 37.7442 29.1063ZM44.5374 24.752C44.1348 25.0134 43.6986 25.125 43.2286 25.0868C42.7618 25.0338 42.304 24.8479 41.8551 24.5288C41.4063 24.2098 40.9989 23.7685 40.6329 23.2049C40.2495 22.6145 39.9302 21.976 39.6752 21.2895C39.4201 20.603 39.2328 19.9425 39.1133 19.3079C38.9937 18.6733 38.9454 18.1387 38.9684 17.704C38.9855 17.2605 39.0791 16.9835 39.2491 16.8731C39.3743 16.7918 39.5033 16.7652 39.6361 16.7934C39.7689 16.8217 39.8847 16.9118 39.9835 17.0639C40.0067 17.0997 40.0523 17.2482 40.1201 17.5093C40.1822 17.7616 40.267 18.088 40.3746 18.4887C40.4764 18.8805 40.6014 19.3081 40.7497 19.7714C40.898 20.2347 41.0699 20.6954 41.2656 21.1534C41.4613 21.6113 41.6782 22.0237 41.9164 22.3905C42.3231 23.0167 42.6688 23.4218 42.9535 23.6057C43.2415 23.7748 43.5196 23.7722 43.788 23.598C44.441 23.1739 44.9389 22.6089 45.2818 21.9029C45.6277 21.1822 45.8593 20.3832 45.9763 19.5059C46.0965 18.6139 46.1387 17.6898 46.1029 16.7338C45.8189 16.9818 45.5379 17.2151 45.2602 17.4337C44.9766 17.6433 44.7035 17.8397 44.4409 18.0229C44.1873 18.2003 43.997 18.2794 43.87 18.2601C43.743 18.2408 43.6301 18.1552 43.5314 18.0031C43.4353 17.8747 43.4105 17.7191 43.4571 17.5362C43.5127 17.3475 43.6046 17.2051 43.733 17.1091C44.1123 16.8118 44.4948 16.4999 44.8804 16.1732C45.266 15.8464 45.6413 15.5137 46.0063 15.1749C45.9538 14.6239 45.8894 14.0743 45.8131 13.5261C45.7369 12.9778 45.6544 12.4591 45.5656 11.9698C45.3759 11.2663 45.2212 10.5973 45.1016 9.96273C44.9762 9.3192 44.9147 8.77408 44.9172 8.32736C44.9138 7.87169 45.0015 7.58576 45.1805 7.46957C45.4846 7.27205 45.7355 7.32537 45.933 7.62952C45.9737 7.69214 46.0467 7.89273 46.1521 8.23128C46.2575 8.56983 46.3867 9.0137 46.5399 9.56289C46.702 10.1063 46.8824 10.7268 47.0811 11.4245C47.274 12.1132 47.4827 12.8361 47.7073 13.5933C48.4079 12.9094 49.0398 12.2765 49.603 11.6945C50.1694 11.0977 50.6353 10.6108 51.0008 10.2335C51.3605 9.84729 51.5806 9.62804 51.6611 9.57576C51.7774 9.50023 51.9091 9.49738 52.0562 9.5672C52.1975 9.62808 52.3 9.70772 52.3639 9.80612C52.4162 9.88663 52.3383 10.0898 52.1303 10.4157C51.9311 10.7358 51.6289 11.142 51.2236 11.6341C50.8214 12.1115 50.3505 12.6399 49.811 13.2192C49.2746 13.7838 48.7055 14.3568 48.1039 14.9383C48.374 15.8439 48.6473 16.7348 48.9237 17.6109C49.2002 18.4871 49.4673 19.2802 49.725 19.9904C49.9001 20.4363 49.8311 20.761 49.518 20.9643C49.357 21.0689 49.21 21.107 49.0772 21.0788C48.9534 21.0448 48.8276 20.9293 48.6998 20.7325C48.6823 20.7057 48.6176 20.557 48.5054 20.2864C48.3964 20.0011 48.2631 19.6489 48.1054 19.2298C47.9419 18.8018 47.7742 18.3575 47.6022 17.8968C47.4245 17.4272 47.2625 16.9918 47.1165 16.5906C47.1885 17.7394 47.1618 18.8442 47.0366 19.9048C46.9114 20.9654 46.647 21.9194 46.2433 22.7666C45.8485 23.608 45.2799 24.2698 44.5374 24.752ZM38.6769 15.3751C38.4622 15.5145 38.2397 15.5636 38.0094 15.5223C37.7881 15.4753 37.6135 15.3534 37.4857 15.1566C37.3289 14.915 37.2831 14.6586 37.3485 14.3872C37.4171 14.101 37.5676 13.8824 37.8002 13.7313C38.0597 13.5629 38.3058 13.5111 38.5388 13.576C38.7659 13.632 38.955 13.7763 39.1061 14.0089C39.2281 14.1968 39.2519 14.4293 39.1775 14.7065C39.1032 14.9837 38.9363 15.2066 38.6769 15.3751ZM56.4182 8.33697C56.6041 8.62324 56.6977 8.96313 56.6989 9.35664C56.6942 9.7412 56.6256 10.1546 56.4931 10.5968C56.3547 11.03 56.1764 11.4702 55.958 11.9173C55.7396 12.3644 55.5037 12.7846 55.2505 13.178C54.9972 13.5714 54.7549 13.9132 54.5236 14.2033C54.6786 14.5986 54.8432 14.9305 55.0175 15.1989C55.1279 15.3689 55.2466 15.4635 55.3736 15.4828C55.5006 15.502 55.6491 15.4565 55.819 15.3461C56.1947 15.1021 56.5493 14.7765 56.8826 14.3693C57.2159 13.962 57.532 13.5087 57.8309 13.0094C58.1298 12.51 58.4022 12.0088 58.6479 11.5059C58.8936 11.0029 59.1122 10.5366 59.3038 10.107C59.5043 9.6715 59.6728 9.31405 59.8093 9.03463C59.9458 8.75521 60.0498 8.59226 60.1214 8.54578C60.2287 8.47607 60.3325 8.45956 60.4326 8.49627C60.5359 8.51823 60.6166 8.57393 60.6747 8.66339C60.7212 8.73496 60.6994 8.94624 60.6094 9.29723C60.5283 9.64241 60.3944 10.0728 60.2077 10.5883C60.0152 11.0948 59.7838 11.6394 59.5135 12.2219C59.2432 12.8045 58.9433 13.3808 58.614 13.9508C58.2936 14.515 57.9546 15.0212 57.5971 15.4696C57.2486 15.9122 56.8954 16.2496 56.5376 16.482C56.0724 16.7841 55.5968 16.8449 55.1108 16.6645C54.6248 16.4841 54.1436 16.0271 53.6673 15.2936C53.3477 14.8015 53.0879 14.2644 52.8878 13.6821C52.6967 13.094 52.5648 12.4992 52.4922 11.8977C52.4227 11.2815 52.4104 10.7044 52.4553 10.1665C52.5034 9.6138 52.6172 9.13292 52.7967 8.72383C52.9704 8.3058 53.2048 8.00093 53.5 7.80922C54.0636 7.44322 54.6081 7.3122 55.1335 7.41616C55.6588 7.52013 56.0871 7.82706 56.4182 8.33697ZM54.1344 12.987C54.3013 12.637 54.4714 12.2722 54.6446 11.8926C54.8178 11.513 54.9658 11.1435 55.0885 10.784C55.2111 10.4245 55.2788 10.0881 55.2914 9.7746C55.3072 9.44639 55.2396 9.16598 55.0886 8.93339C54.8736 8.6024 54.5872 8.55309 54.2294 8.78547C54.0057 8.9307 53.8616 9.22779 53.797 9.67672C53.7356 10.1109 53.7383 10.6242 53.8051 11.2168C53.872 11.8093 53.9817 12.3994 54.1344 12.987ZM20.9702 61.7577C20.836 61.8448 20.6379 61.8336 20.3759 61.7239C20.1229 61.6084 19.8488 61.3921 19.5538 61.075C19.2472 60.7399 18.9102 60.3483 18.5428 59.9C18.1755 59.4518 17.8228 59.0067 17.4849 58.5648C17.1471 58.1228 16.853 57.7288 16.6027 57.3826C16.3525 57.0363 16.1866 56.8006 16.1053 56.6754C15.8032 56.2102 15.6511 55.8193 15.649 55.5027C15.6501 55.1714 15.7669 54.9302 15.9995 54.7791C16.1605 54.6745 16.3058 54.6437 16.4355 54.6867C16.5593 54.7208 16.7171 54.8854 16.9088 55.1806C17.0366 55.3774 17.2067 55.6295 17.419 55.9367C17.6312 56.244 17.8654 56.5753 18.1215 56.9304C18.4241 57.3572 18.744 57.8107 19.0815 58.2911C19.4131 58.7626 19.7373 59.2325 20.0541 59.7008C20.0365 59.2035 20.0239 58.6457 20.0166 58.0272C20.0182 57.403 20.0185 56.7669 20.0174 56.1189C20.0105 55.462 20.0092 54.8333 20.0135 54.2328C20.0178 53.6322 20.0256 53.1057 20.0369 52.6532C20.0483 52.2006 20.0657 51.865 20.089 51.6464C20.1249 51.3687 20.1822 51.1534 20.261 51.0005C20.3487 50.8418 20.4418 50.7305 20.5402 50.6666C20.6744 50.5794 20.8137 50.5589 20.9581 50.6051C21.1114 50.6454 21.2462 50.755 21.3624 50.9339C21.4321 51.0412 21.4882 51.1765 21.5306 51.3398C21.5761 51.4882 21.5933 51.6615 21.582 51.8596C21.5787 52.3833 21.5668 53.0015 21.5464 53.7142C21.526 54.427 21.5037 55.1664 21.4797 55.9324C21.4557 56.6984 21.4319 57.4452 21.4084 58.1727C21.379 58.8913 21.3566 59.5227 21.3412 60.0669C21.3264 61.043 21.2028 61.6067 20.9702 61.7577ZM32.3626 46.4612C32.8315 46.8308 33.3134 47.2301 33.8082 47.6591C34.312 48.0823 34.7786 48.517 35.2082 48.963C35.6409 49.3942 35.985 49.8066 36.2406 50.2003C36.5311 50.6476 36.6575 51.087 36.6197 51.5185C36.5851 51.9352 36.4472 52.33 36.2061 52.7028C35.9707 53.0846 35.6826 53.4244 35.3417 53.722C35.0156 54.0228 34.696 54.2749 34.3829 54.4782C34.1324 54.6409 33.9231 54.7005 33.755 54.6571C33.6016 54.6168 33.4872 54.5385 33.4116 54.4222C33.3594 54.3416 33.3384 54.2408 33.3487 54.1196C33.3532 53.9895 33.4736 53.8223 33.7098 53.618C33.8892 53.4634 34.0838 53.2734 34.2936 53.0482C34.5124 52.8171 34.7076 52.5694 34.8795 52.3052C35.0602 52.0352 35.1818 51.7719 35.244 51.5152C35.3005 51.2496 35.2561 51.005 35.1108 50.7813C34.7913 50.2893 34.3915 49.8304 33.9114 49.4045C33.4403 48.9727 32.956 48.5305 32.4585 48.0778C32.4591 48.7642 32.412 49.4751 32.3174 50.2107C32.2227 50.9463 32.0867 51.6769 31.9093 52.4026C31.7319 53.1282 31.5181 53.8076 31.2679 54.4407C31.0177 55.0738 30.7344 55.6266 30.418 56.0991C30.1017 56.5717 29.7557 56.9299 29.3799 57.1739C28.7627 57.5748 28.1223 57.6854 27.4588 57.5058C26.7894 57.3173 26.1701 56.7847 25.6008 55.908C25.2812 55.416 25.0022 54.8786 24.7637 54.2958C24.5341 53.7072 24.3574 53.1415 24.2338 52.5986C24.1133 52.0409 24.0554 51.5698 24.06 51.1852C24.0588 50.7917 24.1343 50.5456 24.2863 50.4468C24.4026 50.3713 24.5243 50.3432 24.6513 50.3625C24.7872 50.3759 24.9133 50.4721 25.0295 50.651C25.0934 50.7494 25.1809 50.9724 25.2921 51.3199C25.3975 51.6584 25.5288 52.0565 25.686 52.514C25.8374 52.9626 26.0123 53.4277 26.2106 53.9094C26.4032 54.3821 26.6185 54.8019 26.8567 55.1687C27.1704 55.6517 27.4804 55.9528 27.7867 56.0719C28.1019 56.1852 28.4026 56.1488 28.6889 55.9629C29.0378 55.7364 29.3632 55.366 29.6653 54.8519C29.9674 54.3378 30.2364 53.7434 30.4723 53.0687C30.7024 52.3851 30.8914 51.6773 31.0393 50.9453C31.1903 50.1986 31.2863 49.4749 31.3273 48.7742C31.3683 48.0735 31.3477 47.4446 31.2657 46.8873C31.1285 46.7348 30.9928 46.5749 30.8587 46.4076C30.7336 46.2345 30.6129 46.0585 30.4968 45.8796C30.2992 45.5754 30.1829 45.2885 30.1476 45.0188C30.1066 44.7402 30.111 44.5021 30.1607 44.3045C30.2194 44.101 30.2934 43.9703 30.3829 43.9122C30.5797 43.7844 30.8001 43.7811 31.0442 43.9024C31.2883 44.0237 31.5324 44.2722 31.7764 44.6479C31.9216 44.8716 32.0427 45.1363 32.1396 45.4422C32.2365 45.7481 32.3108 46.0878 32.3626 46.4612ZM23.6573 48.5087C23.4068 48.6714 23.1664 48.7321 22.9362 48.6909C22.709 48.6349 22.5199 48.4906 22.3689 48.258C22.1946 47.9896 22.1446 47.7168 22.219 47.4396C22.2965 47.1477 22.4515 46.9262 22.6841 46.7751C22.9435 46.6066 23.1987 46.5491 23.4495 46.6024C23.7035 46.6409 23.9176 46.7944 24.0919 47.0628C24.2197 47.2596 24.2433 47.5114 24.1627 47.8181C24.0852 48.11 23.9167 48.3403 23.6573 48.5087ZM41.309 49.5034C40.9065 49.7648 40.4702 49.8764 40.0002 49.8382C39.5334 49.7853 39.0756 49.5993 38.6268 49.2803C38.1779 48.9612 37.7705 48.5199 37.4045 47.9564C37.0211 47.3659 36.7019 46.7275 36.4468 46.0409C36.1918 45.3544 36.0045 44.6939 35.8849 44.0593C35.7653 43.4247 35.717 42.8901 35.74 42.4555C35.7572 42.0119 35.8508 41.7349 36.0207 41.6245C36.146 41.5432 36.275 41.5166 36.4078 41.5449C36.5406 41.5731 36.6564 41.6632 36.7551 41.8153C36.7784 41.8511 36.8239 41.9996 36.8918 42.2608C36.9538 42.513 37.0386 42.8395 37.1462 43.2402C37.248 43.6319 37.3731 44.0595 37.5213 44.5228C37.6696 44.9861 37.8416 45.4468 38.0372 45.9048C38.2329 46.3628 38.4498 46.7751 38.688 47.1419C39.0947 47.7681 39.4404 48.1732 39.7252 48.3571C40.0131 48.5262 40.2912 48.5237 40.5596 48.3494C41.2126 47.9253 41.7106 47.3603 42.0534 46.6543C42.3994 45.9336 42.6309 45.1347 42.748 44.2574C42.8682 43.3653 42.9104 42.4412 42.8746 41.4852C42.5905 41.7332 42.3096 41.9665 42.0318 42.1851C41.7482 42.3947 41.4751 42.5911 41.2126 42.7743C40.9589 42.9518 40.7686 43.0308 40.6416 43.0116C40.5147 42.9923 40.4018 42.9066 40.303 42.7545C40.2069 42.6261 40.1822 42.4705 40.2288 42.2876C40.2843 42.099 40.3762 41.9566 40.5046 41.8605C40.8839 41.5633 41.2664 41.2513 41.652 40.9246C42.0376 40.5979 42.4129 40.2651 42.7779 39.9263C42.7254 39.3754 42.661 38.8258 42.5848 38.2775C42.5085 37.7292 42.426 37.2105 42.3373 36.7212C42.1475 36.0178 41.9928 35.3487 41.8733 34.7142C41.7479 34.0706 41.6864 33.5255 41.6888 33.0788C41.6854 32.6231 41.7732 32.3372 41.9521 32.221C42.2563 32.0235 42.5071 32.0768 42.7046 32.3809C42.7453 32.4436 42.8183 32.6442 42.9237 32.9827C43.0291 33.3213 43.1584 33.7651 43.3115 34.3143C43.4736 34.8577 43.654 35.4782 43.8527 36.1759C44.0456 36.8646 44.2544 37.5875 44.479 38.3447C45.1795 37.6608 45.8114 37.0279 46.3746 36.4459C46.941 35.8492 47.4069 35.3622 47.7724 34.9849C48.1321 34.5987 48.3522 34.3795 48.4327 34.3272C48.549 34.2517 48.6807 34.2488 48.8278 34.3186C48.9691 34.3795 49.0717 34.4591 49.1356 34.5575C49.1879 34.6381 49.11 34.8413 48.9019 35.1672C48.7028 35.4873 48.4006 35.8934 47.9952 36.3855C47.593 36.863 47.1221 37.3913 46.5826 37.9706C46.0462 38.5352 45.4772 39.1082 44.8755 39.6897C45.1457 40.5954 45.419 41.4862 45.6954 42.3624C45.9718 43.2385 46.2389 44.0316 46.4966 44.7419C46.6717 45.1878 46.6027 45.5124 46.2896 45.7157C46.1286 45.8203 45.9817 45.8584 45.8489 45.8302C45.725 45.7962 45.5992 45.6808 45.4714 45.484C45.454 45.4571 45.3892 45.3084 45.2771 45.0378C45.1681 44.7525 45.0347 44.4003 44.8771 43.9812C44.7136 43.5532 44.5458 43.1089 44.3739 42.6482C44.1961 42.1786 44.0342 41.7432 43.8881 41.3421C43.9601 42.4909 43.9335 43.5956 43.8083 44.6562C43.6831 45.7169 43.4186 46.6708 43.0149 47.518C42.6202 48.3594 42.0515 49.0212 41.309 49.5034ZM35.4485 40.1265C35.2338 40.2659 35.0113 40.315 34.7811 40.2738C34.5597 40.2267 34.3852 40.1048 34.2574 39.908C34.1005 39.6665 34.0548 39.41 34.1202 39.1386C34.1887 38.8524 34.3393 38.6338 34.5719 38.4828C34.8313 38.3143 35.0775 38.2625 35.3104 38.3275C35.5376 38.3835 35.7267 38.5277 35.8777 38.7603C35.9997 38.9482 36.0235 39.1807 35.9492 39.458C35.8748 39.7352 35.708 39.958 35.4485 40.1265ZM53.0609 41.5855C52.5331 41.9282 51.9864 41.9971 51.4208 41.792C50.8552 41.587 50.3633 41.1624 49.945 40.5183C49.794 40.2857 49.6655 40.0194 49.5597 39.7193C49.457 39.4045 49.3896 39.1048 49.3575 38.8204C49.2542 38.7985 49.1498 38.7454 49.0443 38.6613C48.933 38.5683 48.8222 38.4367 48.7118 38.2668C48.369 37.739 48.1448 37.1978 48.039 36.6433C47.9333 36.0887 47.9234 35.5546 48.0095 35.0408C48.0898 34.5181 48.2507 34.0511 48.4924 33.6398C48.7429 33.2227 49.0561 32.8922 49.4318 32.6482C50.0491 32.2473 50.6953 32.1456 51.3704 32.3431C52.0398 32.5316 52.6678 33.0777 53.2546 33.9812C53.5625 34.4553 53.8046 34.9849 53.981 35.5698C54.1663 36.149 54.2864 36.7451 54.3411 37.3582C54.4048 37.9655 54.3963 38.5497 54.3156 39.1109C54.2438 39.6663 54.1032 40.1646 53.8937 40.6058C53.6874 41.0324 53.4098 41.3589 53.0609 41.5855ZM49.9468 37.789C50.047 37.8257 50.1348 37.9023 50.2103 38.0185C50.2975 38.1527 50.3578 38.3043 50.3913 38.4734C50.4337 38.6366 50.5036 38.852 50.6009 39.1194C50.6983 39.3869 50.8864 39.7353 51.1653 40.1647C51.4441 40.5941 51.7535 40.6984 52.0935 40.4776C52.4692 40.2336 52.7222 39.8595 52.8526 39.3551C52.9771 38.8418 53.0106 38.2668 52.9532 37.63C52.8958 36.9932 52.7599 36.3628 52.5455 35.739C52.3343 35.1003 52.0718 34.5394 51.7581 34.0564C51.5548 33.7433 51.3543 33.5619 51.1566 33.5121C50.9532 33.4535 50.6994 33.5229 50.3953 33.7204C50.0822 33.9238 49.8253 34.2432 49.6248 34.6786C49.4275 35.0993 49.3331 35.5612 49.3419 36.0643C49.3506 36.5673 49.5002 37.0425 49.7907 37.4898C49.8546 37.5882 49.9066 37.688 49.9468 37.789ZM58.4135 38.2811C58.2704 38.3741 58.1119 38.3944 57.9379 38.342C57.764 38.2896 57.6102 38.1605 57.4766 37.9548C57.3779 37.8027 57.2465 37.5319 57.0826 37.1423C56.9217 36.738 56.7276 36.2726 56.5003 35.7462C56.2818 35.214 56.0383 34.6726 55.7698 34.122C55.4955 33.5625 55.2044 33.0457 54.8965 32.5715C54.7454 32.339 54.6932 32.1312 54.7398 31.9484C54.7895 31.7507 54.8904 31.6025 55.0425 31.5038C55.1856 31.4108 55.351 31.4306 55.5388 31.563C55.7265 31.6954 55.9723 32.0446 56.2762 32.6104C56.0951 31.4306 56.0705 30.4037 56.2023 29.5295C56.3373 28.6406 56.5724 27.9156 56.9075 27.3546C57.2369 26.7846 57.5984 26.3718 57.992 26.1162C58.2514 25.9477 58.4741 25.8794 58.6602 25.9112C58.8493 25.9282 58.9845 25.9994 59.0659 26.1246C59.1763 26.2946 59.1918 26.4753 59.1126 26.6666C59.0365 26.8432 58.8692 27.1045 58.6105 27.4505C58.3157 27.8582 58.0696 28.2724 57.8722 28.6931C57.678 29.0991 57.5378 29.5589 57.4517 30.0727C57.3746 30.5807 57.3601 31.1752 57.4081 31.8562C57.4503 32.5283 57.568 33.3168 57.7612 34.2215C57.9545 35.1262 58.2257 36.1901 58.5749 37.4132C58.649 37.6449 58.6675 37.83 58.6303 37.9687C58.6021 38.1015 58.5298 38.2056 58.4135 38.2811Z" fill="black"/>
</svg>
