<svg width="774" height="292" viewBox="0 0 774 292" fill="none" xmlns="http://www.w3.org/2000/svg">
<mask id="path-1-outside-1_320_10812" maskUnits="userSpaceOnUse" x="-3" y="-2" width="779" height="296" fill="black">
<rect fill="white" x="-3" y="-2" width="779" height="296"/>
<path d="M106.473 288L0.473438 -1.14441e-05H54.8734L141.673 251.2H132.873L219.673 -1.14441e-05H271.273L165.673 288H106.473ZM364.936 292C343.336 292 324.269 287.467 307.736 278.4C291.469 269.333 278.803 256.8 269.736 240.8C260.669 224.533 256.136 206 256.136 185.2C256.136 164.4 260.669 146.133 269.736 130.4C278.803 114.667 291.469 102.4 307.736 93.6C324.269 84.5333 343.336 80 364.936 80C386.803 80 405.869 84.5333 422.136 93.6C438.403 102.4 451.069 114.667 460.136 130.4C469.203 146.133 473.736 164.4 473.736 185.2C473.736 206 469.069 224.533 459.736 240.8C450.669 256.8 438.003 269.333 421.736 278.4C405.469 287.467 386.536 292 364.936 292ZM364.936 251.6C375.603 251.6 385.203 248.933 393.736 243.6C402.269 238 408.936 230.267 413.736 220.4C418.536 210.267 420.936 198.4 420.936 184.8C420.936 164.8 415.603 149.067 404.936 137.6C394.536 126.133 381.203 120.4 364.936 120.4C348.669 120.4 335.203 126.133 324.536 137.6C313.869 149.067 308.536 164.8 308.536 184.8C308.536 198.4 310.936 210.267 315.736 220.4C320.803 230.267 327.469 238 335.736 243.6C344.269 248.933 354.003 251.6 364.936 251.6ZM502.808 288V84H552.008V133.2H553.208V288H502.808ZM553.208 181.6L548.008 133.2C552.808 115.867 560.941 102.667 572.408 93.6C583.874 84.5333 597.608 80 613.608 80C619.208 80 623.208 80.5333 625.608 81.6V129.2C624.274 128.667 622.408 128.4 620.008 128.4C617.608 128.133 614.674 128 611.208 128C591.741 128 577.208 132.267 567.608 140.8C558.008 149.333 553.208 162.933 553.208 181.6ZM650.667 288V84H699.867V133.2H701.067V288H650.667ZM701.067 181.6L695.867 133.2C700.667 115.867 708.801 102.667 720.267 93.6C731.734 84.5333 745.467 80 761.467 80C767.067 80 771.067 80.5333 773.467 81.6V129.2C772.134 128.667 770.267 128.4 767.867 128.4C765.467 128.133 762.534 128 759.067 128C739.601 128 725.067 132.267 715.467 140.8C705.867 149.333 701.067 162.933 701.067 181.6Z"/>
</mask>
<path d="M106.473 288L0.473438 -1.14441e-05H54.8734L141.673 251.2H132.873L219.673 -1.14441e-05H271.273L165.673 288H106.473ZM364.936 292C343.336 292 324.269 287.467 307.736 278.4C291.469 269.333 278.803 256.8 269.736 240.8C260.669 224.533 256.136 206 256.136 185.2C256.136 164.4 260.669 146.133 269.736 130.4C278.803 114.667 291.469 102.4 307.736 93.6C324.269 84.5333 343.336 80 364.936 80C386.803 80 405.869 84.5333 422.136 93.6C438.403 102.4 451.069 114.667 460.136 130.4C469.203 146.133 473.736 164.4 473.736 185.2C473.736 206 469.069 224.533 459.736 240.8C450.669 256.8 438.003 269.333 421.736 278.4C405.469 287.467 386.536 292 364.936 292ZM364.936 251.6C375.603 251.6 385.203 248.933 393.736 243.6C402.269 238 408.936 230.267 413.736 220.4C418.536 210.267 420.936 198.4 420.936 184.8C420.936 164.8 415.603 149.067 404.936 137.6C394.536 126.133 381.203 120.4 364.936 120.4C348.669 120.4 335.203 126.133 324.536 137.6C313.869 149.067 308.536 164.8 308.536 184.8C308.536 198.4 310.936 210.267 315.736 220.4C320.803 230.267 327.469 238 335.736 243.6C344.269 248.933 354.003 251.6 364.936 251.6ZM502.808 288V84H552.008V133.2H553.208V288H502.808ZM553.208 181.6L548.008 133.2C552.808 115.867 560.941 102.667 572.408 93.6C583.874 84.5333 597.608 80 613.608 80C619.208 80 623.208 80.5333 625.608 81.6V129.2C624.274 128.667 622.408 128.4 620.008 128.4C617.608 128.133 614.674 128 611.208 128C591.741 128 577.208 132.267 567.608 140.8C558.008 149.333 553.208 162.933 553.208 181.6ZM650.667 288V84H699.867V133.2H701.067V288H650.667ZM701.067 181.6L695.867 133.2C700.667 115.867 708.801 102.667 720.267 93.6C731.734 84.5333 745.467 80 761.467 80C767.067 80 771.067 80.5333 773.467 81.6V129.2C772.134 128.667 770.267 128.4 767.867 128.4C765.467 128.133 762.534 128 759.067 128C739.601 128 725.067 132.267 715.467 140.8C705.867 149.333 701.067 162.933 701.067 181.6Z" fill="url(#paint0_linear_320_10812)"/>
<path d="M106.473 288L104.597 288.691L105.078 290H106.473V288ZM0.473438 -1.52588e-05V-2.00002H-2.39384L-1.40347 0.690796L0.473438 -1.52588e-05ZM54.8734 -1.52588e-05L56.7638 -0.653198L56.2984 -2.00002H54.8734V-1.52588e-05ZM141.673 251.2V253.2H144.481L143.564 250.547L141.673 251.2ZM132.873 251.2L130.983 250.547L130.066 253.2H132.873V251.2ZM219.673 -1.52588e-05V-2.00002H218.249L217.783 -0.653198L219.673 -1.52588e-05ZM271.273 -1.52588e-05L273.151 0.688499L274.137 -2.00002H271.273V-1.52588e-05ZM165.673 288V290H167.07L167.551 288.689L165.673 288ZM108.35 287.309L2.35035 -0.690819L-1.40347 0.690796L104.597 288.691L108.35 287.309ZM0.473438 1.99998H54.8734V-2.00002H0.473438V1.99998ZM52.9831 0.653175L139.783 251.853L143.564 250.547L56.7638 -0.653198L52.9831 0.653175ZM141.673 249.2H132.873V253.2H141.673V249.2ZM134.764 251.853L221.564 0.653175L217.783 -0.653198L130.983 250.547L134.764 251.853ZM219.673 1.99998H271.273V-2.00002H219.673V1.99998ZM269.396 -0.688522L163.796 287.311L167.551 288.689L273.151 0.688499L269.396 -0.688522ZM165.673 286H106.473V290H165.673V286ZM307.736 278.4L306.762 280.147L306.774 280.154L307.736 278.4ZM269.736 240.8L267.989 241.774L267.996 241.786L269.736 240.8ZM269.736 130.4L268.003 129.401L269.736 130.4ZM307.736 93.6L308.688 95.3591L308.698 95.3536L307.736 93.6ZM422.136 93.6L421.162 95.347L421.173 95.3531L421.184 95.3591L422.136 93.6ZM460.136 130.4L458.403 131.399L460.136 130.4ZM459.736 240.8L458.001 239.805L457.996 239.814L459.736 240.8ZM421.736 278.4L420.762 276.653L421.736 278.4ZM393.736 243.6L394.796 245.296L394.815 245.284L394.833 245.272L393.736 243.6ZM413.736 220.4L415.534 221.275L415.539 221.266L415.543 221.256L413.736 220.4ZM404.936 137.6L403.454 138.944L403.463 138.953L403.472 138.962L404.936 137.6ZM324.536 137.6L326 138.962L324.536 137.6ZM315.736 220.4L313.928 221.256L313.942 221.285L313.957 221.314L315.736 220.4ZM335.736 243.6L334.614 245.256L334.645 245.276L334.676 245.296L335.736 243.6ZM364.936 290C343.623 290 324.896 285.529 308.698 276.646L306.774 280.154C323.643 289.404 343.049 294 364.936 294V290ZM308.71 276.653C292.759 267.763 280.359 255.491 271.476 239.814L267.996 241.786C277.246 258.109 290.179 270.904 306.762 280.147L308.71 276.653ZM271.483 239.826C262.601 223.891 258.136 205.7 258.136 185.2H254.136C254.136 206.3 258.738 225.176 267.989 241.774L271.483 239.826ZM258.136 185.2C258.136 164.699 262.601 146.786 271.469 131.399L268.003 129.401C258.737 145.48 254.136 164.101 254.136 185.2H258.136ZM271.469 131.399C280.347 115.992 292.74 103.986 308.688 95.3591L306.784 91.8409C290.198 100.814 277.258 113.341 268.003 129.401L271.469 131.399ZM308.698 95.3536C324.896 86.4708 343.623 82 364.936 82V78C343.049 78 323.643 82.5958 306.774 91.8464L308.698 95.3536ZM364.936 82C386.521 82 405.241 86.473 421.162 95.347L423.11 91.853C406.497 82.5936 387.084 78 364.936 78V82ZM421.184 95.3591C437.132 103.986 449.525 115.992 458.403 131.399L461.869 129.401C452.614 113.341 439.674 100.814 423.088 91.8409L421.184 95.3591ZM458.403 131.399C467.271 146.786 471.736 164.699 471.736 185.2H475.736C475.736 164.101 471.135 145.48 461.869 129.401L458.403 131.399ZM471.736 185.2C471.736 205.69 467.142 223.873 458.001 239.805L461.471 241.795C470.996 225.194 475.736 206.31 475.736 185.2H471.736ZM457.996 239.814C449.112 255.491 436.713 267.763 420.762 276.653L422.71 280.147C439.292 270.904 452.226 258.109 461.476 241.786L457.996 239.814ZM420.762 276.653C404.838 285.529 386.25 290 364.936 290V294C386.822 294 406.101 289.404 422.71 280.147L420.762 276.653ZM364.936 253.6C375.954 253.6 385.925 250.84 394.796 245.296L392.676 241.904C384.48 247.027 375.251 249.6 364.936 249.6V253.6ZM394.833 245.272C403.69 239.46 410.589 231.44 415.534 221.275L411.937 219.525C407.283 229.093 400.848 236.54 392.639 241.928L394.833 245.272ZM415.543 221.256C420.494 210.804 422.936 198.634 422.936 184.8H418.936C418.936 198.166 416.578 209.729 411.928 219.544L415.543 221.256ZM422.936 184.8C422.936 164.44 417.499 148.169 406.4 136.238L403.472 138.962C413.706 149.965 418.936 165.16 418.936 184.8H422.936ZM406.417 136.256C395.617 124.348 381.734 118.4 364.936 118.4V122.4C380.671 122.4 393.455 127.918 403.454 138.944L406.417 136.256ZM364.936 118.4C348.138 118.4 334.133 124.347 323.072 136.238L326 138.962C336.272 127.92 349.201 122.4 364.936 122.4V118.4ZM323.072 136.238C311.973 148.169 306.536 164.44 306.536 184.8H310.536C310.536 165.16 315.766 149.965 326 138.962L323.072 136.238ZM306.536 184.8C306.536 198.634 308.978 210.804 313.928 221.256L317.543 219.544C312.894 209.729 310.536 198.166 310.536 184.8H306.536ZM313.957 221.314C319.16 231.445 326.04 239.447 334.614 245.256L336.858 241.944C328.899 236.553 322.446 229.088 317.515 219.486L313.957 221.314ZM334.676 245.296C343.555 250.845 353.661 253.6 364.936 253.6V249.6C354.344 249.6 344.984 247.022 336.796 241.904L334.676 245.296ZM502.808 288H500.808V290H502.808V288ZM502.808 84V82H500.808V84H502.808ZM552.008 84H554.008V82H552.008V84ZM552.008 133.2H550.008V135.2H552.008V133.2ZM553.208 133.2H555.208V131.2H553.208V133.2ZM553.208 288V290H555.208V288H553.208ZM553.208 181.6L551.219 181.814L555.208 181.6H553.208ZM548.008 133.2L546.08 132.666L545.978 133.034L546.019 133.414L548.008 133.2ZM572.408 93.6L571.167 92.0312L572.408 93.6ZM625.608 81.6H627.608V80.3002L626.42 79.7724L625.608 81.6ZM625.608 129.2L624.865 131.057L627.608 132.154V129.2H625.608ZM620.008 128.4L619.787 130.388L619.897 130.4H620.008V128.4ZM567.608 140.8L566.279 139.305L567.608 140.8ZM504.808 288V84H500.808V288H504.808ZM502.808 86H552.008V82H502.808V86ZM550.008 84V133.2H554.008V84H550.008ZM552.008 135.2H553.208V131.2H552.008V135.2ZM551.208 133.2V288H555.208V133.2H551.208ZM553.208 286H502.808V290H553.208V286ZM555.196 181.386L549.996 132.986L546.019 133.414L551.219 181.814L555.196 181.386ZM549.935 133.734C554.648 116.714 562.585 103.916 573.648 95.1688L571.167 92.0312C559.297 101.417 550.967 115.02 546.08 132.666L549.935 133.734ZM573.648 95.1688C584.728 86.4082 598.013 82 613.608 82V78C597.203 78 583.021 82.6584 571.167 92.0312L573.648 95.1688ZM613.608 82C619.174 82 622.807 82.544 624.796 83.4276L626.42 79.7724C623.608 78.5226 619.242 78 613.608 78V82ZM623.608 81.6V129.2H627.608V81.6H623.608ZM626.351 127.343C624.674 126.673 622.515 126.4 620.008 126.4V130.4C622.301 130.4 623.875 130.661 624.865 131.057L626.351 127.343ZM620.229 126.412C617.731 126.135 614.719 126 611.208 126V130C614.63 130 617.484 130.132 619.787 130.388L620.229 126.412ZM611.208 126C591.496 126 576.394 130.314 566.279 139.305L568.937 142.295C578.022 134.219 591.987 130 611.208 130V126ZM566.279 139.305C556.088 148.364 551.208 162.626 551.208 181.6H555.208C555.208 163.241 559.928 150.303 568.937 142.295L566.279 139.305ZM650.667 288H648.667V290H650.667V288ZM650.667 84V82H648.667V84H650.667ZM699.867 84H701.867V82H699.867V84ZM699.867 133.2H697.867V135.2H699.867V133.2ZM701.067 133.2H703.067V131.2H701.067V133.2ZM701.067 288V290H703.067V288H701.067ZM701.067 181.6L699.079 181.814L703.067 181.6H701.067ZM695.867 133.2L693.94 132.666L693.838 133.034L693.879 133.414L695.867 133.2ZM720.267 93.6L719.027 92.0312L720.267 93.6ZM773.467 81.6H775.467V80.3002L774.279 79.7724L773.467 81.6ZM773.467 129.2L772.724 131.057L775.467 132.154V129.2H773.467ZM767.867 128.4L767.646 130.388L767.756 130.4H767.867V128.4ZM715.467 140.8L714.138 139.305L715.467 140.8ZM652.667 288V84H648.667V288H652.667ZM650.667 86H699.867V82H650.667V86ZM697.867 84V133.2H701.867V84H697.867ZM699.867 135.2H701.067V131.2H699.867V135.2ZM699.067 133.2V288H703.067V133.2H699.067ZM701.067 286H650.667V290H701.067V286ZM703.056 181.386L697.856 132.986L693.879 133.414L699.079 181.814L703.056 181.386ZM697.795 133.734C702.508 116.714 710.444 103.916 721.508 95.1688L719.027 92.0312C707.157 101.417 698.826 115.02 693.94 132.666L697.795 133.734ZM721.508 95.1688C732.587 86.4082 745.872 82 761.467 82V78C745.062 78 730.88 82.6584 719.027 92.0312L721.508 95.1688ZM761.467 82C767.034 82 770.667 82.544 772.655 83.4276L774.279 79.7724C771.468 78.5226 767.101 78 761.467 78V82ZM771.467 81.6V129.2H775.467V81.6H771.467ZM774.21 127.343C772.534 126.673 770.374 126.4 767.867 126.4V130.4C770.161 130.4 771.734 130.661 772.724 131.057L774.21 127.343ZM768.088 126.412C765.591 126.135 762.579 126 759.067 126V130C762.489 130 765.344 130.132 767.646 130.388L768.088 126.412ZM759.067 126C739.355 126 724.253 130.314 714.138 139.305L716.796 142.295C725.881 134.219 739.846 130 759.067 130V126ZM714.138 139.305C703.948 148.364 699.067 162.626 699.067 181.6H703.067C703.067 163.241 707.787 150.303 716.796 142.295L714.138 139.305Z" fill="url(#paint1_linear_320_10812)" mask="url(#path-1-outside-1_320_10812)"/>
<defs>
<linearGradient id="paint0_linear_320_10812" x1="385" y1="-218.5" x2="375" y2="199.5" gradientUnits="userSpaceOnUse">
<stop stop-color="#111111"/>
<stop offset="0.416231" stop-color="#111111" stop-opacity="0.08"/>
<stop offset="1" stop-color="#111111" stop-opacity="0"/>
</linearGradient>
<linearGradient id="paint1_linear_320_10812" x1="384.5" y1="-96" x2="376.5" y2="226.5" gradientUnits="userSpaceOnUse">
<stop stop-color="#DFDFDF"/>
<stop offset="1" stop-color="#DFDFDF" stop-opacity="0"/>
</linearGradient>
</defs>
</svg>
